<svg xmlns="http://www.w3.org/2000/svg" viewBox="0 0 62.55 46.93"><defs><style>.cls-1{fill:#3d5afe;stroke:#3d5afe;}</style></defs><title>01</title><g id="Layer_2" data-name="Layer 2"><g id="Layer_1-2" data-name="Layer 1"><path class="cls-1" d="M3.3,20.47c0,.15,0,.18.12.07s0-.13-.12-.07a1.21,1.21,0,0,1,.12-.83,1.48,1.48,0,0,0,.19-.74c0-.16,0-.18.08-.08a.16.16,0,0,0,.24.08c0-.16,0-.22,0-.2s-.15,0-.2-.12A61.82,61.82,0,0,1,7.06,9.76,31.93,31.93,0,0,1,12,2.28h.08c0,.05.05.08.16.08s0-.15,0-.12a.21.21,0,0,1-.12,0V2.12L12.16,2c.15-.1.21-.06.15.12s0,.27.08.27a1.68,1.68,0,0,1,.43-1,2.5,2.5,0,0,1,.75-.51.44.44,0,0,0,.39,0,.26.26,0,0,1,.31.08c.11-.26.34-.32.71-.19a.7.7,0,0,0,.86-.2c.47-.05,1-.09,1.57-.12a12.81,12.81,0,0,1,1.65,0A5.22,5.22,0,0,1,20.51.9a2.56,2.56,0,0,1,1.13,1,.58.58,0,0,0,.08.51A1.51,1.51,0,0,1,22,2.9c-.11,0-.15,0-.12-.07s0-.08,0-.08a8.6,8.6,0,0,0-.27,1.17A3.72,3.72,0,0,1,21,5.26a.44.44,0,0,0,.47.15A1.77,1.77,0,0,1,22,5.33a9.16,9.16,0,0,1,5.48,2.2,1.69,1.69,0,0,0,.59.71c.29.2.56.41.83.62.31.84.62,1.66.94,2.47a10.61,10.61,0,0,1,.62,2.79.71.71,0,0,1,.2.27,1.5,1.5,0,0,0,.12.27,20.33,20.33,0,0,1,0,5.45q-.36,2.63-.75,5.3c-.1,0-.14,0-.12.11s0,.17-.11.28A1.76,1.76,0,0,1,29.56,27a6.7,6.7,0,0,1-.66,2.12A21.12,21.12,0,0,0,28,31.21a1.31,1.31,0,0,1,0,.23.37.37,0,0,1-.2.24A12.3,12.3,0,0,1,26.5,35a1.83,1.83,0,0,1-.31.39,3.32,3.32,0,0,0-.31.39.82.82,0,0,0-.2.47,2.5,2.5,0,0,1-.12.55,2.6,2.6,0,0,1-.54.67,2.6,2.6,0,0,0-.55.67c-.74,1-1.47,2.06-2.2,3a10.09,10.09,0,0,1-2.66,2.51,9.59,9.59,0,0,1-1.73,1.1,10.75,10.75,0,0,1-2.12.78c.06,0,0,.06-.07.16a18.26,18.26,0,0,1-3,.2,5.69,5.69,0,0,1-2.55-.67.16.16,0,0,0-.12,0s-.09,0-.19,0A38.26,38.26,0,0,1,5,42.14a9,9,0,0,1-3.13-5A.31.31,0,0,0,2,36.81c-.05-.13,0-.19.08-.19s-.08-.16-.23-.16a19.06,19.06,0,0,1-.32-5.41c.16-1.78.34-3.5.55-5.17.11,0,.16,0,.16.07s0,0,.08-.07v-.24l-.16.16a13.63,13.63,0,0,1,.24-1.65c.1-.52.21-1,.31-1.41.05,0,.08.1.08.31A3.12,3.12,0,0,0,3,22.43c.06-.21.11-.45.16-.71-.21.05-.27.2-.2.43s0,.38-.27.43c.1-.41.2-.78.27-1.09s.17-.66.28-1ZM1.65,31.29c.11,0,.17.11.2.35a1.09,1.09,0,0,1,0,.51.31.31,0,0,1-.08-.36.3.3,0,0,0-.08-.35,1,1,0,0,0-.08.43.57.57,0,0,0,.08.36c.05-.11.09-.09.12,0a.43.43,0,0,0,.12.27A7.92,7.92,0,0,1,2,31.4a2.78,2.78,0,0,0-.07-1.13Q1.89,31.13,1.65,31.29Zm.16-.95c0-.05,0-.07-.08-.07s-.08,0-.08.07a.07.07,0,0,1,.08.08C1.73,30.48,1.76,30.45,1.81,30.34Zm-.08,3.81c0-.13,0-.15-.08,0S1.73,34.28,1.73,34.15Zm.08-4a.4.4,0,0,1,0-.39c.08-.11,0-.16-.12-.16a1.06,1.06,0,0,1,0,.31A.19.19,0,0,0,1.81,30.11ZM2,34a1.6,1.6,0,0,1,0-1.18c-.1,0-.15,0-.15-.08s0-.07-.08-.07a1.48,1.48,0,0,1-.08.78C1.62,33.79,1.73,34,2,34Zm-.31,1.33c.05.16.08.16.08,0S1.78,35.21,1.73,35.36Zm.16-7A.58.58,0,0,1,2,28.07c.08-.1,0-.13-.19-.08a.28.28,0,0,1,0,.28C1.76,28.35,1.78,28.38,1.89,28.38Zm-.08,5.73q0,.39.15.27T1.81,34.11Zm0,.39c.05.16.08.17.08,0S1.86,34.4,1.81,34.5Zm0,.31c.1.21.15.24.15.08S1.91,34.71,1.81,34.81Zm0,1c.05.16.08.16.08,0S1.86,35.68,1.81,35.83Zm.08-8.31a.24.24,0,0,1,.23.16c0-.21-.08-.31-.23-.31Zm.23,8v-.24c0-.05-.08-.07-.23-.07A.3.3,0,0,0,2.12,35.52Zm0-5.41A5.15,5.15,0,0,1,2.24,29a2.59,2.59,0,0,0,0-1.17A2.44,2.44,0,0,1,2,29,1.21,1.21,0,0,0,2.12,30.11Zm.16-2.35a.32.32,0,0,0,.16-.39.5.5,0,0,1,.07-.47c-.1-.06-.17-.07-.19,0a.21.21,0,0,1-.12,0c0-.16-.05-.19-.16-.08A1.75,1.75,0,0,1,2.28,27.76Zm-.16-1.34H2.2v-.15H2.12ZM2.2,36c0-.13,0-.14-.08,0S2.2,36.16,2.2,36Zm0,.74a.07.07,0,0,0-.08.08S2.2,36.83,2.2,36.77Zm.08-10c.21,0,.3-.12.27-.35S2.44,26,2.28,26s0,.15,0,.28A.63.63,0,0,1,2.28,26.74ZM2.51,25c-.15.11-.23.13-.23.08C2.44,25.09,2.51,25.07,2.51,25Zm-.15-.31c.1.16.15.17.15,0S2.46,24.6,2.36,24.7Zm0,13.41c.1.1.15.09.15,0S2.46,38,2.36,38.11Zm.23-12a.78.78,0,0,0,.08-.35,1.41,1.41,0,0,1,.08-.43c-.11,0-.18.1-.24.31A.48.48,0,0,0,2.59,26.11Zm-.08,8.23c.06.11.08.1.08,0S2.57,34.19,2.51,34.34Zm0,.47c.06.21.08.23.08,0S2.57,34.66,2.51,34.81ZM2.75,23.6s-.08,0-.08,0,0,0-.08,0,0,.11,0,.16S2.75,23.71,2.75,23.6ZM2.67,24c0-.15,0-.18-.08-.07v.15Zm-.08,5.57c.05.11.08.08.08-.08S2.64,29.35,2.59,29.56Zm0,8.78c.05.16.08.17.08,0S2.64,38.24,2.59,38.34ZM2.67,25c.16.06.24,0,.24-.15s-.08-.21-.24-.16Zm.16-.55c-.11,0-.11,0,0,.08s.1,0,0-.08c.1-.05.11-.11,0-.19S2.77,24.26,2.83,24.46Zm.23-.54c-.1,0-.12,0,0-.16s.07-.24,0-.24a.39.39,0,0,0-.11.36C2.89,24,3,24,3.06,23.92Zm.39-2.12c-.1.21-.22.48-.35.82a.72.72,0,0,0,.12.83.75.75,0,0,1,.08-.75,1.24,1.24,0,0,0,.15-.9c.11-.26.21-.54.32-.82a.93.93,0,0,0-.08-.83,2.88,2.88,0,0,1-.12.86A2.76,2.76,0,0,0,3.45,21.8Zm-.39-.24c0,.27,0,.29,0,.08S3.11,21.41,3.06,21.56Zm.08-.31c.11,0,.17-.06.2-.2s0-.19-.12-.19c0,.15,0,.23,0,.23S3.14,21.15,3.14,21.25Zm.16-.47q.15.24.15,0T3.3,20.78Zm.31-1.1a2,2,0,0,0-.16.2c-.05.08,0,.17.16.27a.74.74,0,0,0,0-.47.46.46,0,0,0,.16-.35A.46.46,0,0,1,3.93,19c-.21,0-.31.09-.28.27A.72.72,0,0,1,3.61,19.68Zm-.16.55c.06.11.08.09.08,0S3.51,20.07,3.45,20.23Zm.24,2.59V23a.22.22,0,0,0,.08-.15ZM4,19.92a.45.45,0,0,1,.16-.32c.1-.1.08-.18-.08-.23a.8.8,0,0,0-.15.27C3.87,19.77,3.9,19.87,4,19.92Zm.08-1.65H4a.47.47,0,0,0-.07.31c.26,0,.31,0,.15.28s-.13.35.08.35c0-.16.07-.26,0-.31s0-.16,0-.32.13-.07.08-.07-.08,0-.08.07c-.16-.15-.21-.26-.16-.31s.12-.18,0-.23S4,18.06,4.08,18.27Zm0-.39c.11,0,.18-.08.24-.24s0-.26-.08-.31a.75.75,0,0,0-.08.31A.33.33,0,0,1,4.08,17.88Zm.39-.79a1,1,0,0,1,.08-.27c0-.13,0-.2-.08-.2a.85.85,0,0,1-.07.28C4.34,17,4.37,17.09,4.47,17.09Zm.47-.54a1.83,1.83,0,0,0-.39.9c0,.34-.1.66-.15,1,.1-.26.22-.58.35-.94a2.89,2.89,0,0,0,.19-.94c.11-.06.12-.12,0-.2S4.89,16.34,4.94,16.55Zm-.39-.08a2.67,2.67,0,0,0,.28-.32.76.76,0,0,0,.11-.47.32.32,0,0,0-.23.32A.83.83,0,0,1,4.55,16.47Zm.16,2.58h.16V19H4.71Zm.23-3.76c0,.26,0,.3,0,.12S5,15.19,4.94,15.29ZM5,15.21c.16,0,.22-.06.2-.19a.23.23,0,0,1,.12-.28.44.44,0,0,1,0,.59A1.22,1.22,0,0,0,5.1,16a2.59,2.59,0,0,0,.47-.79,1.22,1.22,0,0,0,.08-.94c-.05.16-.09.17-.12,0s-.09-.17-.19-.12c0,.27-.06.44-.16.51S5,15,5,15.21Zm.39-.86q.16-.07.12.12c0,.13,0,.19,0,.19s-.1.11-.16,0A.34.34,0,0,1,5.41,14.35Zm.16-.47c.11-.05.13-.12.08-.2s-.11-.06-.16,0l.08.08ZM6,13.65a.28.28,0,0,0-.31-.32A.28.28,0,0,0,6,13.65Zm-.07.54A.25.25,0,0,0,6,14,.71.71,0,0,1,6,13.72H5.89a.38.38,0,0,1-.12.28C5.69,14.08,5.73,14.14,5.89,14.19ZM5.81,13.1a1.75,1.75,0,0,0,.47-.71,1.08,1.08,0,0,0,.08-.86,4,4,0,0,1-.24.82C6,12.59,5.91,12.84,5.81,13.1Zm.31.15c.16,0,.24-.1.24-.31C6.2,12.94,6.12,13,6.12,13.25Zm.47-.78q-.15,0,0,.12t0-.12c.1-.05.13-.08.08-.08A.07.07,0,0,0,6.59,12.47Zm.16-1a1.23,1.23,0,0,1,.31-.78.77.77,0,0,0,.16-.79,1.38,1.38,0,0,1-.35.83C6.63,11,6.59,11.24,6.75,11.45Zm0,.78a.53.53,0,0,1,.12-.31c.07-.1,0-.16-.12-.16a.23.23,0,0,1,0,.28C6.63,12.12,6.64,12.18,6.75,12.23ZM22.9,8.47l-.59-.59a5.84,5.84,0,0,1-.51-.59.34.34,0,0,1-.51.16,1,1,0,0,0-.74,0,.55.55,0,0,1-.32.24.46.46,0,0,0-.31.31.21.21,0,0,1-.12-.27c0-.13,0-.2-.19-.2a1.11,1.11,0,0,1-.91.23,1,1,0,0,0-.9.32c-.26-.26-.5-.28-.7,0a1.31,1.31,0,0,1-.71.43c-.05-.05,0-.1,0-.16s0-.07-.12-.07c-.31.2-.64.4-1,.58s-.66.38-1,.59q-.07,0,0-.12c.05-.07,0-.11-.08-.11a.39.39,0,0,0-.15.47.64.64,0,0,0-.47,0A49.34,49.34,0,0,0,9,21.13,63.84,63.84,0,0,0,6.9,33.64,4.51,4.51,0,0,1,7,34.5v.78a18,18,0,0,0,1.14,4.55,7,7,0,0,0,2.55,3.22q0-.16.15,0a.21.21,0,0,0,.32,0,11.25,11.25,0,0,0,5.49-3.85,40.81,40.81,0,0,0,3.84-6c0,.15.05.23.16.23s0-.17-.08-.19-.06-.09,0-.2c.52-1.1,1-2.19,1.49-3.29s.88-2.22,1.25-3.37c0,.15.05.23.16.23A10.6,10.6,0,0,1,24,23.8a20.42,20.42,0,0,0,.74-3c.1-.89.2-1.89.27-3a24.25,24.25,0,0,0,0-3.41,12.65,12.65,0,0,0-.62-3.25A7.1,7.1,0,0,0,22.9,8.47ZM7.06,11H7.3Q7.3,10.91,7.06,11Zm.35-1.33s0,0,0,.15h.07C7.45,9.7,7.44,9.65,7.41,9.65Zm.83-.79c.1.06.13,0,.08-.08s-.08-.07-.08.08c-.16-.1-.17-.21,0-.31s.14-.26,0-.47c-.16.26-.3.51-.43.74a6.47,6.47,0,0,0-.36.75c.26-.05.36-.09.28-.12s0,0,.19.12A.53.53,0,0,1,8,9.25,1.42,1.42,0,0,0,8.24,8.86ZM7.69,10a.24.24,0,0,0-.08.16c0,.1,0,.15.08.15A.68.68,0,0,0,7.77,10Zm.16-1.1c.15,0,.22,0,.19.12a.51.51,0,0,1-.12.2c0-.06-.06-.09,0-.12S7.9,9,7.85,8.86Zm.62-1.17c-.1.1-.15.13-.15.07S8.47,7.74,8.47,7.69Zm.16.7c-.16,0-.24,0-.24.08a.15.15,0,0,1,.16,0S8.63,8.44,8.63,8.39Zm.31-1.33H8.63a.14.14,0,0,1,0,.16s0,.07,0,.07l.47-.43q.32-.27,0-.51a1.12,1.12,0,0,1-.24.32Q8.79,6.82,8.94,7.06Zm-.31,1c0,.21.08.22.08,0S8.68,7.92,8.63,8.08Zm.16-.39c-.06.26-.07.3,0,.11S8.79,7.58,8.79,7.69ZM9.41,5.8c-.05.21,0,.27.12.16S9.62,5.8,9.41,5.8Zm.32-.15c0-.16,0-.18.15-.08s.16.1.16,0-.14,0-.12-.12,0-.17-.19-.12c0,.06,0,.11,0,.16S9.62,5.6,9.73,5.65ZM10,5.26s0,.06-.08,0S9.94,5.26,10,5.26ZM10.16,5a.12.12,0,0,0,.12.08c.05-.1,0-.17-.08-.2s-.16,0-.16.2C10.09,5,10.13,5,10.16,5Zm.66-1.25q.16.39,0,.51a.6.6,0,0,0-.28.43L11,4.2c.21-.24.26-.41.16-.51,0,.26,0,.34-.08.23A.25.25,0,0,0,10.82,3.77Zm1.26-1c-.05,0-.09,0-.12,0s-.12-.07-.27,0a.26.26,0,0,1,0,.27.44.44,0,0,0-.08.28c-.21,0-.34.07-.39.23q.22.17.27,0a.55.55,0,0,1,.12-.23A.66.66,0,0,1,11.88,3c.13-.08.2-.17.2-.27a.26.26,0,0,0,.23-.12c.06-.08,0-.14-.07-.2a.12.12,0,0,1-.08.12C12.1,2.58,12.08,2.64,12.08,2.75ZM12.63,2c.1,0,.17,0,.19,0a.18.18,0,0,1,.2-.12.62.62,0,0,1-.08-.23s-.08-.08-.23-.08c.1.16.1.25,0,.28S12.58,1.94,12.63,2Zm.23-1c.11,0,.13.07.08.2s-.13.17-.23.12V1.1C12.81,1.1,12.86,1.07,12.86,1Zm.24.63c.31-.1.47-.21.47-.31C13.2,1.34,13.05,1.44,13.1,1.65ZM16,8.71c.1-.11.16-.1.16,0S16.1,8.86,16,8.71Zm3-5.49a4.74,4.74,0,0,1-1.41,1.41,2.41,2.41,0,0,0-1.1,1.49A3.44,3.44,0,0,1,18,5.69a7.91,7.91,0,0,0,1.72-.28,1.6,1.6,0,0,0-.15-1.17,2.47,2.47,0,0,1-.32-1ZM17.33,8.16c.11-.11.15-.09.12,0S17.38,8.31,17.33,8.16Zm2.67,0c.1-.11.14-.09.12,0S20.05,8.31,20,8.16Zm.86,24.69c.05,0,.06,0,0-.08S20.86,32.75,20.86,32.85Zm1.25-25c.11.06.11.13,0,.24L22,7.92C22,7.82,22,7.79,22.11,7.84Zm.4.55q-.09-.15-.12-.15s0-.06,0-.16A.47.47,0,0,1,22.51,8.39Zm-.16,21c0,.16.08.17.08,0S22.4,29.3,22.35,29.4Zm.16-21a.22.22,0,0,1,.15.08q.07.07.24,0a.51.51,0,0,0,.19.35q.19.19.12.36a1.48,1.48,0,0,1-.39-.4A4.84,4.84,0,0,0,22.51,8.39Zm.78.79a1.63,1.63,0,0,1,.43.74,6.58,6.58,0,0,0,.28.82,1.77,1.77,0,0,1-.4-.7C23.5,9.72,23.39,9.44,23.29,9.18ZM24,10.82a6.49,6.49,0,0,1,.7,2.32c.11.86.18,1.68.24,2.47-.11-.74-.24-1.55-.4-2.44A20.67,20.67,0,0,0,24,10.82Zm.78,5.1c0-.11.12-.12.2,0s.06.14,0,.2a.22.22,0,0,1-.08-.16C24.81,15.87,24.78,15.87,24.78,15.92Zm0,.23c.1,0,.16.11.16.32C24.83,16.47,24.78,16.36,24.78,16.15Zm0,.47c.1,0,.16.11.16.32-.11,0-.15,0-.12-.08A.25.25,0,0,0,24.78,16.62Zm0,.71c.21,0,.27.07.2.2a.67.67,0,0,0-.12.35A1.82,1.82,0,0,1,24.78,17.33Z"/><path class="cls-1" d="M37.4,40.07c-.1,0-.16.1-.16.31h.24c.1-.1.09-.16,0-.16s-.14,0,0-.15a6.43,6.43,0,0,1,.59-.36c.23-.13.4-.14.51,0a7,7,0,0,0,.27-2.23,5.41,5.41,0,0,1,.28-2A5.68,5.68,0,0,1,39,37.13a5.27,5.27,0,0,0-.08,1.68c.11-.1.14-.17.12-.19l.12.11a8.29,8.29,0,0,0,.19-1.25,6.77,6.77,0,0,1,.2-1.18.41.41,0,0,0-.08-.19c0-.08-.11-.07-.16,0-.1-.11-.11-.19,0-.24a.28.28,0,0,1,.28,0c0-.21,0-.34-.08-.39s-.13-.16-.08-.31q.07.15.24,0a.39.39,0,0,1,0-.51c.13-.13.11-.28,0-.44a.13.13,0,0,0,.15-.15c0-.11,0-.16.08-.16,0-.16-.12-.2-.19-.12s-.1,0,0-.27c.1,0,.15,0,.15,0s0,0,.08,0a2.62,2.62,0,0,1-.15-.47.37.37,0,0,1,.23-.47c0,.1,0,.17,0,.19s0,.09,0,.2.17-.07.2-.2,0-.19-.12-.19a.24.24,0,0,0,.08-.16.22.22,0,0,1,.08-.16c0-.21-.06-.26-.16-.15,0-.11-.07-.17,0-.2s0-.12,0-.27.13.07.08.23c.16,0,.22-.08.2-.23s0-.21.19-.16a1.62,1.62,0,0,1,0-1.18c.13-.47.25-.86.35-1.17.11.15.1.27,0,.35s-.1.17.11.27a4.19,4.19,0,0,0,0-1.05c0-.45,0-.88,0-1.3a.6.6,0,0,1,0-.47.78.78,0,0,0,0-.55c.16,0,.21,0,.16.12a.51.51,0,0,0-.08.28c.16,0,.21-.06.16-.16s0-.18.08-.24a.34.34,0,0,1,.07.24c-.1,0-.13.05-.07.16a.34.34,0,0,1,0,.31c.2-.21.23-.37.07-.47.11,0,.15,0,.12-.16s0-.16,0-.16,0-.15-.12-.15-.11-.05-.11-.16.14-.19.11-.27a1,1,0,0,1,0-.43c.11.05.13.14.08.27s0,.22.08.27c-.11,0-.13,0-.08,0s.08,0,.08,0a1,1,0,0,0,0-.74.69.69,0,0,1,.16-.75c0,.11,0,.16.07.16s.13,0,.08-.08a.22.22,0,0,0-.15-.08v-.31a.07.07,0,0,0-.08-.08c-.06,0-.08,0-.08.08a.38.38,0,0,1,0-.47c.1-.05.13,0,.08.16s0,.21.08.15a.16.16,0,0,0,0-.19.42.42,0,0,1,0-.28A5.45,5.45,0,0,1,42,23c.1,0,.13,0,.08-.07s-.08,0-.08.07-.08,0-.08-.15a2,2,0,0,0-.2.35.67.67,0,0,0,0,.35c-.21.06-.25-.14-.11-.58a4,4,0,0,0,.19-.91c.11.06.13.15.08.28a.43.43,0,0,0,0,.35.27.27,0,0,0,.12-.39q-.12-.24.27-.24a4.52,4.52,0,0,1,.32-2.58A5.53,5.53,0,0,0,43.05,17a1.41,1.41,0,0,0,.23-.83,1.68,1.68,0,0,1,.24-.9s.08.05.08.16a.27.27,0,0,1-.08.16c.1.05.14,0,.11-.12a.25.25,0,0,1,.12-.28,2.08,2.08,0,0,1,.12-1.72,3.72,3.72,0,0,0,.35-2s0,0-.15.08a.47.47,0,0,1-.32.15.1.1,0,0,1,0,.16c.16.05.22,0,.2,0s0-.09.19,0c.06.26,0,.42-.19.47s-.22.16-.12.32h-.08a.91.91,0,0,0,.16.23c.05.05,0,.18-.08.39-.1,0-.12-.08,0-.23s.07-.21,0-.16-.13.28-.08.35a1,1,0,0,1,.08.51c-.26-.2-.38-.11-.35.28s-.07.61-.27.66a5.12,5.12,0,0,1,.31-1.45A3.14,3.14,0,0,0,43.67,12q-1.48,2.12-2.74,4.08a9.65,9.65,0,0,1-3.53,3.21c0-.05-.08-.08-.23-.08s-.07-.16,0-.16,0-.05,0-.15c-.21.05-.34,0-.4-.12s-.13-.2-.23-.2a.19.19,0,0,1,.08-.15c-.16.1-.26.1-.32,0a1.28,1.28,0,0,0-.23-.32.25.25,0,0,0,.16-.07c-.11-.11-.16-.08-.16.07a1.66,1.66,0,0,1-.63-.7,1.63,1.63,0,0,0-.63-.71l.44-.19a.35.35,0,0,1,.43,0,1,1,0,0,1,.39-.36c.16-.08.21-.24.16-.51.15.06.23.06.23,0s0-.07.16-.07.15.1.31,0c-.1-.06-.17-.07-.19,0a.21.21,0,0,1-.12,0,2.12,2.12,0,0,1,.23-.4.62.62,0,0,0,.08-.39.14.14,0,0,1,.12.08s0,0,0-.08.08.13.08.39a.36.36,0,0,0,.11-.35c0-.13,0-.2.12-.2-.1-.1-.17-.11-.19,0s-.1.09-.2,0,.06-.23.2-.23.14-.11,0-.31c.16,0,.21.05.16.15.16,0,.18-.13.08-.23a1.28,1.28,0,0,0,.24-.39.49.49,0,0,1,.39-.32.55.55,0,0,1-.24.32q-.15.07-.15.39a1.32,1.32,0,0,0,.54-.59,3.49,3.49,0,0,1,.4-.67c-.06-.15-.1-.17-.12,0s-.09.17-.2.12c0-.1,0-.17,0-.19s-.11-.1-.11-.2c.2,0,.31-.05.31-.16s.08-.05.08-.15c.15.15.18.26.08.31.15,0,.23,0,.23-.08a.58.58,0,0,0,0-.2,1.17,1.17,0,0,1,0-.15s0,0,.16,0,0-.17-.12-.2-.14-.11,0-.27a.49.49,0,0,0,.24-.32.49.49,0,0,1,.39-.31c0,.26-.09.42-.27.47s-.2.21,0,.47a5.77,5.77,0,0,1,.66-1,2.27,2.27,0,0,0,.51-1.17.72.72,0,0,0,.47-.36.88.88,0,0,0,.16-.43,2.67,2.67,0,0,0,.94-1.57,1,1,0,0,0,.47-.43,4.1,4.1,0,0,0,.31-.66,2.87,2.87,0,0,0,.71-.87,6.54,6.54,0,0,1,.71-1l.07-.08q-.15-.17-.15,0c-.11,0-.16,0-.16,0s0,0-.08,0a.31.31,0,0,1,.32-.24c0,.06,0,.08.07.08s.08,0,.08-.16a.42.42,0,0,0,.43-.23,1.3,1.3,0,0,1,.28-.39c0-.11,0-.19,0-.24s-.07-.13,0-.23a1.09,1.09,0,0,0,.23-.39c.05-.16.21-.19.47-.08V2l.08.08c.11,0,.16,0,.16-.08s0-.08-.16-.08,0-.15-.08-.15a4,4,0,0,1,.47-.4.73.73,0,0,0,.32-.47,1.27,1.27,0,0,0,.74.08c.19-.05.3.05.36.32a1.31,1.31,0,0,1,.7-.12,2.74,2.74,0,0,1,.67.19l.7.32a3.83,3.83,0,0,0,.75.23c-.05.27,0,.41.15.43a1.73,1.73,0,0,1,.4.12c-.06.26,0,.43.11.51a.56.56,0,0,1,.2.51h.08A7.25,7.25,0,0,1,51.51,7c-.21,1.18-.44,2.37-.7,3.57a7.69,7.69,0,0,1-.35.86,2.72,2.72,0,0,0-.28.78,24.19,24.19,0,0,1-.67,2.87,16.86,16.86,0,0,0-.58,2.7A16.14,16.14,0,0,0,48,21.72a16.16,16.16,0,0,1-1,3.92,5.82,5.82,0,0,1-.11,1.8,8,8,0,0,1-.51,1.65,40.75,40.75,0,0,1-.79,4.31A26,26,0,0,0,45,37.71a.43.43,0,0,1,.35,0c.13.06.22,0,.27-.07s.07.06,0,.19-.09.15-.19,0c.1.11.19.13.27.08s.17,0,.28.08c0-.16-.06-.24-.16-.24a2.5,2.5,0,0,1,.9-.15,7.92,7.92,0,0,0,1.06-.08q4.39-.31,5.64,4a1.12,1.12,0,0,0-.15.62,1.15,1.15,0,0,1-.16.63c-.1,0-.14-.06-.12-.2s0-.19-.11-.19c0,.21-.08.29-.24.23s-.21,0-.16.08-.17,0-.35-.15a.42.42,0,0,1-.12-.55.12.12,0,0,0-.11,0,.4.4,0,0,1-.2,0c.1-.16.13-.23.08-.2s-.13,0-.24,0a1.65,1.65,0,0,1,.12-.31.78.78,0,0,0,0-.4A7.53,7.53,0,0,0,50,40.69a9.36,9.36,0,0,0-1.92-.11,15.22,15.22,0,0,0-1.92.19,12.83,12.83,0,0,0-1.64.39,12.5,12.5,0,0,0,0,2.12,7.1,7.1,0,0,0,.39,2,.25.25,0,0,0-.16.24.71.71,0,0,1-.08.31.61.61,0,0,1-.39,0c-.16,0-.21.07-.16.27-.26-.1-.44-.18-.54-.23s-.27,0-.47.23a1.88,1.88,0,0,1-.71-.39,1.46,1.46,0,0,0-.94-.31,2.84,2.84,0,0,0-1.1-1.3,2.77,2.77,0,0,1-1.1-1.29,22.46,22.46,0,0,0-3.21,1.45,14.26,14.26,0,0,1-3.22,1.29,1.25,1.25,0,0,1-.07-.27s-.11,0-.32,0a1.32,1.32,0,0,0-.35-.67.49.49,0,0,1,0-.66h-.16a1.46,1.46,0,0,1,0-.51c0-.08,0-.17-.11-.28.1-.1.1-.24,0-.43s-.11-.32,0-.43a5.83,5.83,0,0,0,1.84-.71,5.9,5.9,0,0,1,1.92-.7s0,0,0,0-.07-.09,0-.2a1.38,1.38,0,0,0,.82-.31A2.21,2.21,0,0,1,37.4,40Zm-3.53,1.8a.21.21,0,0,0,.24-.24A.21.21,0,0,0,33.87,41.87Zm.47-.31s0,.06,0,0,0,0,0,0S34.34,41.61,34.34,41.56ZM35.68,41h.15v-.16h-.15Zm1.49-.63c-.11,0-.16,0-.16.08C37.11,40.35,37.17,40.33,37.17,40.38Zm.23-25.72c.11.06.16,0,.16-.11s-.05-.15-.16,0Zm0-.7c0-.05,0,0,0,.08S37.41,14,37.44,14Zm.67,26c-.32,0-.47,0-.47.08s.18.15.23.15-.08-.14.08-.11.21,0,.16-.12c.31,0,.47-.11.47-.32a.38.38,0,0,0-.28.12Zm.08-27.21-.08.08Zm-.08.32c0-.16.08-.17.08,0S38.16,13.2,38.11,13.1Zm.94,25.09v.23c0,.11,0,.13-.16.08C38.94,38.29,39,38.19,39.05,38.19Zm-.16.78v.23l.16-.15c0,.1.08.1.23,0-.1,0-.15,0-.15,0s0,0-.08,0Zm.16-.78a.17.17,0,0,0,0-.12s0-.09,0-.2c.05.11.09.16.12.16s0,0,0,.16Zm0-.95c.31.11.34.29.08.55-.11,0-.13-.11-.08-.19A.44.44,0,0,0,39.05,37.24Zm0-1.8c.05-.42.09-.87.12-1.37a1.91,1.91,0,0,1,.35-1.14,8.42,8.42,0,0,0-.2,1.3A4,4,0,0,1,39.05,35.44Zm.23.78c.11.06.11.16,0,.32a.54.54,0,0,0,0,.55.32.32,0,0,1-.11-.43A1.39,1.39,0,0,0,39.28,36.22ZM39.44,39c-.11.1-.16.13-.16.08S39.44,39,39.44,39Zm.16-28.46a.18.18,0,0,0-.12.23c0,.11,0,.14-.12.08a.26.26,0,0,0,.08-.19C39.44,10.55,39.49,10.51,39.6,10.51Zm-.24,28.3c0,.16.08.17.08,0S39.41,38.71,39.36,38.81Zm.08-6.19c.05-.11.09-.09.12,0S39.54,32.77,39.44,32.62Zm.16,1.64c-.06,0-.08,0-.08,0s0,0-.08,0A.53.53,0,0,1,39.6,34c.1,0,.13,0,.08.08A.28.28,0,0,0,39.6,34.26Zm-.16.16h.16v.16h-.16Zm0,.94c.05.16.08.16.08,0S39.49,35.21,39.44,35.36Zm0,2.2c.1,0,.16,0,.16-.12s-.06-.17-.16-.12Zm.16-5.49c.1,0,.13.1.08.16a.28.28,0,0,0-.08.23c-.11,0-.15-.05-.12-.16a1.59,1.59,0,0,0,0-.23Zm0,0a.22.22,0,0,1,0-.28c.07-.07.06-.11,0-.11.1-.21.15-.18.15.08S39.7,32.12,39.6,32.07Zm.15-22a.17.17,0,1,1-.15.31.19.19,0,0,1,.08-.15A.25.25,0,0,0,39.75,10Zm.08,25.17a.11.11,0,0,1-.15,0c-.06,0-.08,0-.08,0S39.83,35.26,39.83,35.21Zm-.23.31h.15c.11-.1.06-.16-.15-.16Zm.15.7a.32.32,0,0,0-.15-.31C39.6,36.12,39.65,36.22,39.75,36.22Zm0-5.4c.16,0,.2.07.12.23a.93.93,0,0,0-.12.39c-.1-.1-.11-.19,0-.27A.31.31,0,0,0,39.75,30.82Zm.16,1.41c.05.21,0,.28-.08.23S39.75,32.33,39.91,32.23Zm-.08,2.11c.05.11.08.1.08,0S39.88,34.19,39.83,34.34Zm.24-5.09A.83.83,0,0,1,40,30a.67.67,0,0,0,0,.67,1,1,0,0,1-.08-.67,3.5,3.5,0,0,0,.08-.74ZM40,31.13a.27.27,0,0,1,.12.31c0,.16-.1.24-.2.24A2.43,2.43,0,0,1,40,31.13Zm0,2.19c.16.06.22,0,.2-.07A.37.37,0,0,0,40,33Zm.08-23.75c0-.11,0-.13.12-.08S40.22,9.57,40.07,9.57Zm0,19.68v-.51c0-.19.1-.3.31-.36a1.23,1.23,0,0,1-.08.44.43.43,0,0,0,0,.35S40.22,29.25,40.07,29.25Zm0,1.25c0-.1.08-.16.23-.16S40.22,30.5,40.07,30.5Zm.39-3.45a.39.39,0,0,1,.08.59,1,1,0,0,0-.16.74c-.21-.1-.25-.3-.12-.58A1.91,1.91,0,0,0,40.46,27.05Zm-.16,2.82c.05.11.07.17,0,.2a.16.16,0,0,0,0,.12c-.1-.05-.13-.09-.08-.12S40.3,30,40.3,29.87ZM40.22,9.41c0-.05.06-.08.16-.08S40.33,9.41,40.22,9.41Zm.16,19.52c.16.11.2.21.12.32a.51.51,0,0,0-.12.31c-.1-.1-.13-.2-.08-.27A.69.69,0,0,0,40.38,28.93Zm-.08.79q.08-.24.12,0T40.3,29.72Zm.08,1.41h.08v-.08h-.08Zm.08-4.23h.23c-.1.1-.15.13-.15.07S40.51,26.9,40.46,26.9Zm0,1.56c0-.1.06-.06,0,.12S40.46,28.73,40.46,28.46Zm0,2h.23v-.23h-.23ZM40.77,10c-.05,0-.1.07-.15,0s-.08,0-.08,0S40.77,10,40.77,10ZM40.69,30s0,.07-.07,0S40.59,30,40.69,30Zm0-.94c0-.05,0-.06,0,0s0,.09,0,.2ZM41,8.16a.33.33,0,0,0,.19-.24.19.19,0,0,1,.2-.16,1.78,1.78,0,0,1-.35.67,3.73,3.73,0,0,0-.36.43c-.1-.21-.09-.34,0-.39A.48.48,0,0,0,41,8.16Zm-.16,18c0,.11,0,.17,0,.2a.33.33,0,0,0,0,.19.18.18,0,0,1-.11-.23A.18.18,0,0,1,40.85,26.11Zm-.08,1.41c0,.11,0,.13,0,.08S40.72,27.52,40.77,27.52Zm0,2.59h.16C40.93,30,40.88,30,40.77,30.11Zm.71-8a3.49,3.49,0,0,1-.16,1.77,10.88,10.88,0,0,0-.47,2A3.32,3.32,0,0,1,41,24.19,13.18,13.18,0,0,0,41.48,22.11ZM40.93,27c0,.27-.07.3,0,.12S40.93,26.87,40.93,27Zm.16.83s0-.07-.08-.12a.14.14,0,0,1-.08.12s0,.06.08.11A.11.11,0,0,1,41.09,27.8ZM41.17,25c0-.15.07-.14.07,0S41.22,25.22,41.17,25Zm0,.32c0-.11,0-.16,0-.16s0,0,0,.16Zm.31-1.18a.7.7,0,0,1,0,.24.28.28,0,0,0,0,.15.15.15,0,0,1-.08-.23C41.37,24.2,41.43,24.15,41.48,24.15Zm.16.86h-.16c.1.06.12.1,0,.12s-.09.09,0,.2a.17.17,0,0,0,.19-.12.18.18,0,0,0,0-.2c.1-.05.1-.11,0-.19S41.53,24.81,41.64,25ZM41.48,7.45c.1-.16.16-.17.16,0S41.58,7.56,41.48,7.45Zm.16,14.19a.29.29,0,0,1,0,.39c-.11,0-.14-.05-.08-.15a.16.16,0,0,0-.08-.24Zm0,0a7,7,0,0,1,.15-.82,2.56,2.56,0,0,0,.08-.67,1.08,1.08,0,0,1,0,.75C41.83,21.13,41.74,21.38,41.64,21.64Zm.31-15a1.1,1.1,0,0,1,0,.31,1.15,1.15,0,0,0,0,.31c-.1.11-.16,0-.16-.19s.06-.38.16-.43Zm-.08,15H42v.16h-.08Zm.08-15c.1,0,.14-.12.12-.2s0-.12.19-.12c-.1.11-.13.19-.08.24S42.16,6.67,42,6.67Zm.16,12.85s.06.07,0,.2-.1.17-.2.12a.12.12,0,0,1,.08-.12S42.11,19.63,42.11,19.52Zm.07-.62c.11,0,.15.06.12.19s-.09.2-.19.2a.31.31,0,0,1,0-.2A.36.36,0,0,0,42.18,18.9Zm.16.47c.11.05.13.12.08.19a.43.43,0,0,0-.08.2c-.1-.05-.13-.12-.08-.2A.37.37,0,0,0,42.34,19.37Zm-.08-1.26h.16v.16h-.16Zm0,.4c.05-.06.08,0,.08.23l-.08-.16ZM42.42,6c.1-.16.16-.17.16,0S42.52,6.15,42.42,6Zm0,14.82c.1.15.16.14.16,0S42.52,20.65,42.42,20.86Zm.23-3.77c.06,0,.07,0,0,.12s0,.12.12.12c-.1.11-.14.18-.12.24s0,.15-.11.31A.64.64,0,0,1,42.65,17.09Zm0,1.49c0-.1,0-.15-.07-.15s0-.05.07-.16.08.05.08.16S42.71,18.58,42.65,18.58Zm0,0c0,.11,0,.14-.07.08S42.55,18.58,42.65,18.58Zm0-.7a.12.12,0,0,1,0,.16c0,.05,0,.07,0,.07s-.09.12-.11,0A.33.33,0,0,1,42.65,17.88Zm0-12.15c.06-.16.08-.16.08,0S42.71,5.88,42.65,5.73Zm.48,9a.63.63,0,0,1,0,.39.72.72,0,0,0,.12.48.28.28,0,0,0-.23-.08,4.07,4.07,0,0,0-.2.78,1.92,1.92,0,0,1-.2.63,4,4,0,0,1,.16-1.14C42.92,15.46,43,15.11,43.13,14.74Zm-.4-9.33c.11,0,.16.11.16.32C42.78,5.73,42.73,5.62,42.73,5.41Zm.47-.31c0,.1,0,.16,0,.16s-.07,0-.07.15q-.32.16-.24-.15C42.94,5.05,43.05,5,43.2,5.1ZM43.05,17c-.16,0-.2-.06-.12-.16S43.05,16.81,43.05,17Zm.15-1.22c0,.13,0,.12-.07,0S43.2,15.67,43.2,15.8Zm.16-1c0-.16,0-.14,0,0S43.31,15,43.36,14.82Zm.39-10.5a.73.73,0,0,1-.39.47.36.36,0,0,1,.12-.32ZM43.6,15q.15,0,0,.12c-.11.07-.08.11.07.11-.1.11-.17.11-.19,0A.18.18,0,0,1,43.6,15Zm.23-2.35c.1,0,.16,0,.16.07S43.93,12.73,43.83,12.63Zm0,1.49h.24c.15-.16.13-.24-.08-.24C44,14,43.93,14.12,43.83,14.12Zm0,.39c.1,0,.13,0,.08-.08S43.83,14.4,43.83,14.51Zm.24-10.19L44,4.24S44.07,4.26,44.07,4.32ZM44,12.16s.06,0,0-.08S44,12.05,44,12.16Zm.08-8.24s0-.08.07-.08Zm.15-.08h-.08V3.53A.62.62,0,0,1,44.22,3.84Zm.32-.62c.05,0,.07.08.07.23-.1,0-.15,0-.15.08-.16,0-.17-.09,0-.12S44.59,3.32,44.54,3.22Zm.54-.39h.16V2.59h-.16ZM45.63,2,45.71,2C45.71,2,45.69,2,45.63,2Zm.24-.16H46c.15-.15.1-.23-.16-.23Zm0,.87c.05,0,.06,0,0-.08S45.87,2.64,45.87,2.75ZM46.34.94c0-.2.08-.23.08-.07S46.39,1.05,46.34.94Zm1,36.85c0,.16.08.15.08,0S47.41,37.58,47.36,37.79Zm2.27.08a.14.14,0,0,1,.12.08s0,0,0-.08Z"/><path class="cls-1" d="M62,39.75a2.89,2.89,0,0,1-.94,1.73,11.55,11.55,0,0,1-1.65,1.25A2.87,2.87,0,0,1,58,42.54a3.6,3.6,0,0,1-1-.67,10.46,10.46,0,0,0-.63-1.33,3.35,3.35,0,0,1,.47-1.88A5.62,5.62,0,0,1,58,37.4a.54.54,0,0,1,.47.08c.16.1.24.05.24-.16a7.65,7.65,0,0,0,1.45.83c.44.18.92.4,1.45.66a1.2,1.2,0,0,0,.15.59A2.35,2.35,0,0,0,62,39.75Z"/></g></g></svg>