<svg xmlns="http://www.w3.org/2000/svg" viewBox="0 0 73.77 46.41"><defs><style>.cls-1{fill:#3d5afe;stroke:#3d5afe;}</style></defs><title>02</title><g id="Layer_2" data-name="Layer 2"><g id="Layer_1-2" data-name="Layer 1"><path class="cls-1" d="M3.3,20.47c0,.15,0,.18.12.07s0-.13-.12-.07a1.21,1.21,0,0,1,.12-.83,1.48,1.48,0,0,0,.19-.74c0-.16,0-.18.08-.08a.16.16,0,0,0,.24.08c0-.16,0-.22,0-.2s-.15,0-.2-.12A61.82,61.82,0,0,1,7.06,9.76,31.93,31.93,0,0,1,12,2.28h.08c0,.05.05.08.16.08s0-.15,0-.12a.21.21,0,0,1-.12,0V2.12L12.16,2c.15-.1.21-.06.15.12s0,.27.08.27a1.68,1.68,0,0,1,.43-1,2.5,2.5,0,0,1,.75-.51.44.44,0,0,0,.39,0,.26.26,0,0,1,.31.08c.11-.26.34-.32.71-.19a.7.7,0,0,0,.86-.2c.47-.05,1-.09,1.57-.12a12.81,12.81,0,0,1,1.65,0A5.22,5.22,0,0,1,20.51.9a2.56,2.56,0,0,1,1.13,1,.58.58,0,0,0,.08.51A1.51,1.51,0,0,1,22,2.9c-.11,0-.15,0-.12-.07s0-.08,0-.08a8.6,8.6,0,0,0-.27,1.17A3.72,3.72,0,0,1,21,5.26a.44.44,0,0,0,.47.15A1.77,1.77,0,0,1,22,5.33a9.16,9.16,0,0,1,5.48,2.2,1.69,1.69,0,0,0,.59.71c.29.2.56.41.83.62.31.84.62,1.66.94,2.47a10.61,10.61,0,0,1,.62,2.79.71.71,0,0,1,.2.27,1.5,1.5,0,0,0,.12.27,20.33,20.33,0,0,1,0,5.45q-.36,2.63-.75,5.3c-.1,0-.14,0-.12.11s0,.17-.11.28A1.76,1.76,0,0,1,29.56,27a6.7,6.7,0,0,1-.66,2.12A21.12,21.12,0,0,0,28,31.21a1.31,1.31,0,0,1,0,.23.37.37,0,0,1-.2.24A12.3,12.3,0,0,1,26.5,35a1.83,1.83,0,0,1-.31.39,3.32,3.32,0,0,0-.31.39.82.82,0,0,0-.2.47,2.5,2.5,0,0,1-.12.55,2.6,2.6,0,0,1-.54.67,2.6,2.6,0,0,0-.55.67c-.74,1-1.47,2.06-2.2,3a10.09,10.09,0,0,1-2.66,2.51,9.59,9.59,0,0,1-1.73,1.1,10.75,10.75,0,0,1-2.12.78c.06,0,0,.06-.07.16a18.26,18.26,0,0,1-3,.2,5.69,5.69,0,0,1-2.55-.67.16.16,0,0,0-.12,0s-.09,0-.19,0A38.26,38.26,0,0,1,5,42.14a9,9,0,0,1-3.13-5A.31.31,0,0,0,2,36.81c-.05-.13,0-.19.08-.19s-.08-.16-.23-.16a19.06,19.06,0,0,1-.32-5.41c.16-1.78.34-3.5.55-5.17.11,0,.16,0,.16.07s0,0,.08-.07v-.24l-.16.16a13.63,13.63,0,0,1,.24-1.65c.1-.52.21-1,.31-1.41.05,0,.08.1.08.31A3.12,3.12,0,0,0,3,22.43c.06-.21.11-.45.16-.71-.21.05-.27.2-.2.43s0,.38-.27.43c.1-.41.2-.78.27-1.09s.17-.66.28-1ZM1.65,31.29c.11,0,.17.11.2.35a1.09,1.09,0,0,1,0,.51.31.31,0,0,1-.08-.36.3.3,0,0,0-.08-.35,1,1,0,0,0-.08.43.57.57,0,0,0,.08.36c.05-.11.09-.09.12,0a.43.43,0,0,0,.12.27A7.92,7.92,0,0,1,2,31.4a2.78,2.78,0,0,0-.07-1.13Q1.89,31.13,1.65,31.29Zm.16-.95c0-.05,0-.07-.08-.07s-.08,0-.08.07a.07.07,0,0,1,.08.08C1.73,30.48,1.76,30.45,1.81,30.34Zm-.08,3.81c0-.13,0-.15-.08,0S1.73,34.28,1.73,34.15Zm.08-4a.4.4,0,0,1,0-.39c.08-.11,0-.16-.12-.16a1.06,1.06,0,0,1,0,.31A.19.19,0,0,0,1.81,30.11ZM2,34a1.6,1.6,0,0,1,0-1.18c-.1,0-.15,0-.15-.08s0-.07-.08-.07a1.48,1.48,0,0,1-.08.78C1.62,33.79,1.73,34,2,34Zm-.31,1.33c.05.16.08.16.08,0S1.78,35.21,1.73,35.36Zm.16-7A.58.58,0,0,1,2,28.07c.08-.1,0-.13-.19-.08a.28.28,0,0,1,0,.28C1.76,28.35,1.78,28.38,1.89,28.38Zm-.08,5.73q0,.39.15.27T1.81,34.11Zm0,.39c.05.16.08.17.08,0S1.86,34.4,1.81,34.5Zm0,.31c.1.21.15.24.15.08S1.91,34.71,1.81,34.81Zm0,1c.05.16.08.16.08,0S1.86,35.68,1.81,35.83Zm.08-8.31a.24.24,0,0,1,.23.16c0-.21-.08-.31-.23-.31Zm.23,8v-.24c0-.05-.08-.07-.23-.07A.3.3,0,0,0,2.12,35.52Zm0-5.41A5.15,5.15,0,0,1,2.24,29a2.59,2.59,0,0,0,0-1.17A2.44,2.44,0,0,1,2,29,1.21,1.21,0,0,0,2.12,30.11Zm.16-2.35a.32.32,0,0,0,.16-.39.5.5,0,0,1,.07-.47c-.1-.06-.17-.07-.19,0a.21.21,0,0,1-.12,0c0-.16-.05-.19-.16-.08A1.75,1.75,0,0,1,2.28,27.76Zm-.16-1.34H2.2v-.15H2.12ZM2.2,36c0-.13,0-.14-.08,0S2.2,36.16,2.2,36Zm0,.74a.07.07,0,0,0-.08.08S2.2,36.83,2.2,36.77Zm.08-10c.21,0,.3-.12.27-.35S2.44,26,2.28,26s0,.15,0,.28A.63.63,0,0,1,2.28,26.74ZM2.51,25c-.15.11-.23.13-.23.08C2.44,25.09,2.51,25.07,2.51,25Zm-.15-.31c.1.16.15.17.15,0S2.46,24.6,2.36,24.7Zm0,13.41c.1.1.15.09.15,0S2.46,38,2.36,38.11Zm.23-12a.78.78,0,0,0,.08-.35,1.41,1.41,0,0,1,.08-.43c-.11,0-.18.1-.24.31A.48.48,0,0,0,2.59,26.11Zm-.08,8.23c.06.11.08.1.08,0S2.57,34.19,2.51,34.34Zm0,.47c.06.21.08.23.08,0S2.57,34.66,2.51,34.81ZM2.75,23.6s-.08,0-.08,0,0,0-.08,0,0,.11,0,.16S2.75,23.71,2.75,23.6ZM2.67,24c0-.15,0-.18-.08-.07v.15Zm-.08,5.57c.05.11.08.08.08-.08S2.64,29.35,2.59,29.56Zm0,8.78c.05.16.08.17.08,0S2.64,38.24,2.59,38.34ZM2.67,25c.16.06.24,0,.24-.15s-.08-.21-.24-.16Zm.16-.55c-.11,0-.11,0,0,.08s.1,0,0-.08c.1-.05.11-.11,0-.19S2.77,24.26,2.83,24.46Zm.23-.54c-.1,0-.12,0,0-.16s.07-.24,0-.24a.39.39,0,0,0-.11.36C2.89,24,3,24,3.06,23.92Zm.39-2.12c-.1.21-.22.48-.35.82a.72.72,0,0,0,.12.83.75.75,0,0,1,.08-.75,1.24,1.24,0,0,0,.15-.9c.11-.26.21-.54.32-.82a.93.93,0,0,0-.08-.83,2.88,2.88,0,0,1-.12.86A2.76,2.76,0,0,0,3.45,21.8Zm-.39-.24c0,.27,0,.29,0,.08S3.11,21.41,3.06,21.56Zm.08-.31c.11,0,.17-.06.2-.2s0-.19-.12-.19c0,.15,0,.23,0,.23S3.14,21.15,3.14,21.25Zm.16-.47q.15.24.15,0T3.3,20.78Zm.31-1.1a2,2,0,0,0-.16.2c-.05.08,0,.17.16.27a.74.74,0,0,0,0-.47.46.46,0,0,0,.16-.35A.46.46,0,0,1,3.93,19c-.21,0-.31.09-.28.27A.72.72,0,0,1,3.61,19.68Zm-.16.55c.06.11.08.09.08,0S3.51,20.07,3.45,20.23Zm.24,2.59V23a.22.22,0,0,0,.08-.15ZM4,19.92a.45.45,0,0,1,.16-.32c.1-.1.08-.18-.08-.23a.8.8,0,0,0-.15.27C3.87,19.77,3.9,19.87,4,19.92Zm.08-1.65H4a.47.47,0,0,0-.07.31c.26,0,.31,0,.15.28s-.13.35.08.35c0-.16.07-.26,0-.31s0-.16,0-.32.13-.07.08-.07-.08,0-.08.07c-.16-.15-.21-.26-.16-.31s.12-.18,0-.23S4,18.06,4.08,18.27Zm0-.39c.11,0,.18-.08.24-.24s0-.26-.08-.31a.75.75,0,0,0-.08.31A.33.33,0,0,1,4.08,17.88Zm.39-.79a1,1,0,0,1,.08-.27c0-.13,0-.2-.08-.2a.85.85,0,0,1-.07.28C4.34,17,4.37,17.09,4.47,17.09Zm.47-.54a1.83,1.83,0,0,0-.39.9c0,.34-.1.66-.15,1,.1-.26.22-.58.35-.94a2.89,2.89,0,0,0,.19-.94c.11-.06.12-.12,0-.2S4.89,16.34,4.94,16.55Zm-.39-.08a2.67,2.67,0,0,0,.28-.32.76.76,0,0,0,.11-.47.32.32,0,0,0-.23.32A.83.83,0,0,1,4.55,16.47Zm.16,2.58h.16V19H4.71Zm.23-3.76c0,.26,0,.3,0,.12S5,15.19,4.94,15.29ZM5,15.21c.16,0,.22-.06.2-.19a.23.23,0,0,1,.12-.28.44.44,0,0,1,0,.59A1.22,1.22,0,0,0,5.1,16a2.59,2.59,0,0,0,.47-.79,1.22,1.22,0,0,0,.08-.94c-.05.16-.09.17-.12,0s-.09-.17-.19-.12c0,.27-.06.44-.16.51S5,15,5,15.21Zm.39-.86q.16-.07.12.12c0,.13,0,.19,0,.19s-.1.11-.16,0A.34.34,0,0,1,5.41,14.35Zm.16-.47c.11-.05.13-.12.08-.2s-.11-.06-.16,0l.08.08ZM6,13.65a.28.28,0,0,0-.31-.32A.28.28,0,0,0,6,13.65Zm-.07.54A.25.25,0,0,0,6,14,.71.71,0,0,1,6,13.72H5.89a.38.38,0,0,1-.12.28C5.69,14.08,5.73,14.14,5.89,14.19ZM5.81,13.1a1.75,1.75,0,0,0,.47-.71,1.08,1.08,0,0,0,.08-.86,4,4,0,0,1-.24.82C6,12.59,5.91,12.84,5.81,13.1Zm.31.15c.16,0,.24-.1.24-.31C6.2,12.94,6.12,13,6.12,13.25Zm.47-.78q-.15,0,0,.12t0-.12c.1-.05.13-.08.08-.08A.07.07,0,0,0,6.59,12.47Zm.16-1a1.23,1.23,0,0,1,.31-.78.77.77,0,0,0,.16-.79,1.38,1.38,0,0,1-.35.83C6.63,11,6.59,11.24,6.75,11.45Zm0,.78a.53.53,0,0,1,.12-.31c.07-.1,0-.16-.12-.16a.23.23,0,0,1,0,.28C6.63,12.12,6.64,12.18,6.75,12.23ZM22.9,8.47l-.59-.59a5.84,5.84,0,0,1-.51-.59.34.34,0,0,1-.51.16,1,1,0,0,0-.74,0,.55.55,0,0,1-.32.24.46.46,0,0,0-.31.31.21.21,0,0,1-.12-.27c0-.13,0-.2-.19-.2a1.11,1.11,0,0,1-.91.23,1,1,0,0,0-.9.32c-.26-.26-.5-.28-.7,0a1.31,1.31,0,0,1-.71.43c-.05-.05,0-.1,0-.16s0-.07-.12-.07c-.31.2-.64.4-1,.58s-.66.38-1,.59q-.07,0,0-.12c.05-.07,0-.11-.08-.11a.39.39,0,0,0-.15.47.64.64,0,0,0-.47,0A49.34,49.34,0,0,0,9,21.13,63.84,63.84,0,0,0,6.9,33.64,4.51,4.51,0,0,1,7,34.5v.78a18,18,0,0,0,1.14,4.55,7,7,0,0,0,2.55,3.22q0-.16.15,0a.21.21,0,0,0,.32,0,11.25,11.25,0,0,0,5.49-3.85,40.81,40.81,0,0,0,3.84-6c0,.15.05.23.16.23s0-.17-.08-.19-.06-.09,0-.2c.52-1.1,1-2.19,1.49-3.29s.88-2.22,1.25-3.37c0,.15.05.23.16.23A10.6,10.6,0,0,1,24,23.8a20.42,20.42,0,0,0,.74-3c.1-.89.2-1.89.27-3a24.25,24.25,0,0,0,0-3.41,12.65,12.65,0,0,0-.62-3.25A7.1,7.1,0,0,0,22.9,8.47ZM7.06,11H7.3Q7.3,10.91,7.06,11Zm.35-1.33s0,0,0,.15h.07C7.45,9.7,7.44,9.65,7.41,9.65Zm.83-.79c.1.06.13,0,.08-.08s-.08-.07-.08.08c-.16-.1-.17-.21,0-.31s.14-.26,0-.47c-.16.26-.3.51-.43.74a6.47,6.47,0,0,0-.36.75c.26-.05.36-.09.28-.12s0,0,.19.12A.53.53,0,0,1,8,9.25,1.42,1.42,0,0,0,8.24,8.86ZM7.69,10a.24.24,0,0,0-.08.16c0,.1,0,.15.08.15A.68.68,0,0,0,7.77,10Zm.16-1.1c.15,0,.22,0,.19.12a.51.51,0,0,1-.12.2c0-.06-.06-.09,0-.12S7.9,9,7.85,8.86Zm.62-1.17c-.1.1-.15.13-.15.07S8.47,7.74,8.47,7.69Zm.16.7c-.16,0-.24,0-.24.08a.15.15,0,0,1,.16,0S8.63,8.44,8.63,8.39Zm.31-1.33H8.63a.14.14,0,0,1,0,.16s0,.07,0,.07l.47-.43q.32-.27,0-.51a1.12,1.12,0,0,1-.24.32Q8.79,6.82,8.94,7.06Zm-.31,1c0,.21.08.22.08,0S8.68,7.92,8.63,8.08Zm.16-.39c-.06.26-.07.3,0,.11S8.79,7.58,8.79,7.69ZM9.41,5.8c-.05.21,0,.27.12.16S9.62,5.8,9.41,5.8Zm.32-.15c0-.16,0-.18.15-.08s.16.1.16,0-.14,0-.12-.12,0-.17-.19-.12c0,.06,0,.11,0,.16S9.62,5.6,9.73,5.65ZM10,5.26s0,.06-.08,0S9.94,5.26,10,5.26ZM10.16,5a.12.12,0,0,0,.12.08c.05-.1,0-.17-.08-.2s-.16,0-.16.2C10.09,5,10.13,5,10.16,5Zm.66-1.25q.16.39,0,.51a.6.6,0,0,0-.28.43L11,4.2c.21-.24.26-.41.16-.51,0,.26,0,.34-.08.23A.25.25,0,0,0,10.82,3.77Zm1.26-1c-.05,0-.09,0-.12,0s-.12-.07-.27,0a.26.26,0,0,1,0,.27.44.44,0,0,0-.08.28c-.21,0-.34.07-.39.23q.22.17.27,0a.55.55,0,0,1,.12-.23A.66.66,0,0,1,11.88,3c.13-.08.2-.17.2-.27a.26.26,0,0,0,.23-.12c.06-.08,0-.14-.07-.2a.12.12,0,0,1-.08.12C12.1,2.58,12.08,2.64,12.08,2.75ZM12.63,2c.1,0,.17,0,.19,0a.18.18,0,0,1,.2-.12.62.62,0,0,1-.08-.23s-.08-.08-.23-.08c.1.16.1.25,0,.28S12.58,1.94,12.63,2Zm.23-1c.11,0,.13.07.08.2s-.13.17-.23.12V1.1C12.81,1.1,12.86,1.07,12.86,1Zm.24.63c.31-.1.47-.21.47-.31C13.2,1.34,13.05,1.44,13.1,1.65ZM16,8.71c.1-.11.16-.1.16,0S16.1,8.86,16,8.71Zm3-5.49a4.74,4.74,0,0,1-1.41,1.41,2.41,2.41,0,0,0-1.1,1.49A3.44,3.44,0,0,1,18,5.69a7.91,7.91,0,0,0,1.72-.28,1.6,1.6,0,0,0-.15-1.17,2.47,2.47,0,0,1-.32-1ZM17.33,8.16c.11-.11.15-.09.12,0S17.38,8.31,17.33,8.16Zm2.67,0c.1-.11.14-.09.12,0S20.05,8.31,20,8.16Zm.86,24.69c.05,0,.06,0,0-.08S20.86,32.75,20.86,32.85Zm1.25-25c.11.06.11.13,0,.24L22,7.92C22,7.82,22,7.79,22.11,7.84Zm.4.55q-.09-.15-.12-.15s0-.06,0-.16A.47.47,0,0,1,22.51,8.39Zm-.16,21c0,.16.08.17.08,0S22.4,29.3,22.35,29.4Zm.16-21a.22.22,0,0,1,.15.08q.07.07.24,0a.51.51,0,0,0,.19.35q.19.19.12.36a1.48,1.48,0,0,1-.39-.4A4.84,4.84,0,0,0,22.51,8.39Zm.78.79a1.63,1.63,0,0,1,.43.74,6.58,6.58,0,0,0,.28.82,1.77,1.77,0,0,1-.4-.7C23.5,9.72,23.39,9.44,23.29,9.18ZM24,10.82a6.49,6.49,0,0,1,.7,2.32c.11.86.18,1.68.24,2.47-.11-.74-.24-1.55-.4-2.44A20.67,20.67,0,0,0,24,10.82Zm.78,5.1c0-.11.12-.12.2,0s.06.14,0,.2a.22.22,0,0,1-.08-.16C24.81,15.87,24.78,15.87,24.78,15.92Zm0,.23c.1,0,.16.11.16.32C24.83,16.47,24.78,16.36,24.78,16.15Zm0,.47c.1,0,.16.11.16.32-.11,0-.15,0-.12-.08A.25.25,0,0,0,24.78,16.62Zm0,.71c.21,0,.27.07.2.2a.67.67,0,0,0-.12.35A1.82,1.82,0,0,1,24.78,17.33Z"/><path class="cls-1" d="M60.45,32.66c.11,0,.16,0,.16,0a.07.07,0,0,0,.08-.08s0,0,.08,0l.27.12c.08,0,.07.09,0,.19a.75.75,0,0,1,.55.16,4.11,4.11,0,0,1,1.21,1.29,2.13,2.13,0,0,1,.36,1.77.19.19,0,0,0-.2.11q0,.12-.27.12c0-.1-.19-.21-.55-.31a9.22,9.22,0,0,1-.94-.32c0,.21,0,.33.11.36a1.37,1.37,0,0,1,.36.11q0,.16-.24,0c-.15-.13-.28-.15-.39,0s-.08.05-.08.15a.25.25,0,0,0-.39-.08c-.16.11-.18.08-.08-.07a.94.94,0,0,1-.39.23.86.86,0,0,0-.39.24.75.75,0,0,0-.9-.2.83.83,0,0,1-.91-.12,5.84,5.84,0,0,1-1.92.28,10.18,10.18,0,0,0-2,.12c-.21,0-.31,0-.31.15,0-.1-.16-.15-.47-.15s-.47.13-.47.39c-.21-.11-.31-.13-.31-.08s-.08,0-.24-.08q-.31.55-.78.24a31.32,31.32,0,0,1-3.18.62,14,14,0,0,0-3.17.87,22.84,22.84,0,0,0-5.69,1.92Q36.7,41.87,34.11,43a.75.75,0,0,1-.47,0c-.16,0-.26,0-.32.08a1.61,1.61,0,0,0-.47-.24,1.36,1.36,0,0,1-.47-.31.53.53,0,0,0-.11-.36L32,41.91a.67.67,0,0,1-.16-.24A.31.31,0,0,1,32,41.4a.64.64,0,0,1-.19-.35,1.17,1.17,0,0,0-.2-.43h.23v.23c.06,0,.08,0,.08-.12s0-.11-.08-.11a.26.26,0,0,0-.11-.24c-.08-.05-.12,0-.12.08a.16.16,0,0,1-.08-.24.68.68,0,0,0,.08-.31c0-.1-.08-.16-.24-.16a1.31,1.31,0,0,0-.11-.51.63.63,0,0,1,0-.58c.1,0,.13,0,.07.07s-.05.13,0,.24a.77.77,0,0,0,.08-.63c.21.11.29,0,.24-.23a.89.89,0,0,1,.15-.71c.11.21.24.22.4,0s.21-.3.15-.35a1.23,1.23,0,0,0,.55-.75.87.87,0,0,1,.79-.59c.05-.1.05-.16,0-.19s-.06-.09,0-.2a.63.63,0,0,0,.51-.47.39.39,0,0,1,.51-.31c-.16-.26,0-.45.39-.55a.37.37,0,0,1-.24.2c-.1,0-.1.09,0,.19.26-.16.37-.34.32-.55l.31-.31a.65.65,0,0,0,.16-.47c.15,0,.21.12.15.19a1.15,1.15,0,0,1-.15.2c.26,0,.38-.16.35-.31a.85.85,0,0,1,.12-.55c.15.15.23.15.23,0s.11-.21.32-.16a.28.28,0,0,1-.08-.23c0,.1.05.13.15.07s.16,0,.16.08c.11-.1.14-.18.12-.23s0-.13,0-.24.08,0,.08-.08v-.07h0c-.06,0-.08,0-.08.15-.11-.1-.12-.17,0-.19s.12-.07.12-.12.17-.05.19,0a.14.14,0,0,0,.12.08,2.78,2.78,0,0,1,0-.36c0-.18.14-.22.35-.11,0-.11,0-.15-.08-.12s0,0,.08-.12.07,0,0,.08,0,.08,0,.08a8,8,0,0,1,.67-.82q.2-.19.66-.75c.11.11.08.2-.07.28a.36.36,0,0,0-.24.35c.16,0,.24-.07.24-.2s.07-.17.23-.12a.61.61,0,0,1,0-.39.39.39,0,0,1,.2-.31,1.76,1.76,0,0,0-.12.23c0,.06,0,.16,0,.32.26,0,.35-.15.27-.43s0-.41.28-.36c-.11.16-.09.23,0,.2s.11-.09,0-.2.08-.15.23-.31a.24.24,0,0,1,.16.08l-.16.16.16-.16s.08,0,.08,0,.05,0,.15,0c-.1-.37,0-.6.32-.71a1.34,1.34,0,0,0,.7-.47c0-.1,0-.13-.07-.07v-.16s.07,0,.07-.08.06-.08.16-.08,0,.16,0,.16,0,.05,0,.16c.16-.11.21-.21.16-.32a.73.73,0,0,1,0-.47c.26.11.42.09.47,0a.3.3,0,0,1,.31-.19c.05.1.08.13.08.07s0-.07-.08-.07a.15.15,0,0,0,0-.12s0-.09,0-.2.08,0,.08,0,0,0,.08,0,0-.16.16-.16.23-.1.23-.31c.16.11.25.11.28,0a.45.45,0,0,1,.11-.23c.21,0,.32-.08.32-.24.1,0,.15-.08.15-.23a1,1,0,0,1,.08-.4c0,.06.08.11.24.16a3.38,3.38,0,0,1,.47-.55,2,2,0,0,0,.47-.86c.1,0,.16.1.16.31a2.59,2.59,0,0,0,.47-.66,1.36,1.36,0,0,1,.47-.59v.08l.07.15a.5.5,0,0,1,.32-.39c.15-.05.23-.21.23-.47q.16-.07.24,0c0,.05.13,0,.23-.08a.76.76,0,0,1,.59-.86,1,1,0,0,0,.75-.86.42.42,0,0,0,.47-.47c.05-.05.13-.05.23,0a1,1,0,0,1,.08-.4,2.49,2.49,0,0,0,.82-.58,2.42,2.42,0,0,0,.59-.83,1.06,1.06,0,0,1,.59-.43c.18,0,.33-.22.43-.59.21,0,.33-.05.35-.15a2.08,2.08,0,0,1,.12-.32c-.1,0-.12-.1,0-.15a.54.54,0,0,0,.2-.24c.1,0,.13,0,.08.08a.21.21,0,0,0-.08.16l.51-.36a.44.44,0,0,0,.12-.58c.05,0,.07,0,.07,0s.06,0,.16,0a.26.26,0,0,1,.08-.32c0,.06,0,.08.12.08s.11,0,.11-.08l.08-.08s.16-.13.32-.39c-.11,0-.16,0-.16,0s0,.05-.16,0a.36.36,0,0,0,.2-.27c0-.13.12-.17.27-.12-.05,0-.07,0-.07.08v.16c.1,0,.19-.07.27-.2s.14-.25.2-.35H55q0-.24-.15-.24c0-.16.07-.16.23,0a.73.73,0,0,0,.2-.39,3.73,3.73,0,0,0,0-.47c0-.05,0-.07.11,0s.12,0,.12,0v.39a6.81,6.81,0,0,0,.35-.62,1.37,1.37,0,0,1,.44-.47c0-.11,0-.13,0-.08a.14.14,0,0,1-.12.08c.1-.27.18-.4.23-.4s-.09-.11-.11,0-.07.1-.12,0,.08-.15.23-.31c0,0,0,.08.12.08s.12,0,.12-.08a.07.07,0,0,0,.08-.08q0-.08.15,0a.58.58,0,0,1,0-.35q0-.2.36-.12c-.11-.16-.11-.27,0-.35a.35.35,0,0,0,.15-.28,1.8,1.8,0,0,0,.4-.62.69.69,0,0,0-.4.62h-.15A20,20,0,0,1,58.3,7.53a2.85,2.85,0,0,0,.27-2.35.41.41,0,0,0-.16-.36.65.65,0,0,1-.23-.35,3.29,3.29,0,0,0-1.06-.12,2,2,0,0,1-.9-.11,14.37,14.37,0,0,0-3.33.58c-.87.29-1.77.57-2.71.83-.94.47-1.87,1-2.78,1.53s-1.74,1.06-2.47,1.53c-.11.15-.22.32-.35.51s-.28.24-.44.19a3.85,3.85,0,0,1-.54.31,1.73,1.73,0,0,0-.47.32,21.26,21.26,0,0,0-3,3c-.92,1.1-1.79,2.25-2.63,3.45-.26,0-.31-.07-.16-.2s.19-.22.08-.27a8,8,0,0,0-.78,1.49c-.06,0-.08,0-.08-.16a2,2,0,0,1-.31.55,1,1,0,0,0-.24.55.34.34,0,0,0-.39.08l-.32.31a2.12,2.12,0,0,1-1-1.22,3.44,3.44,0,0,0-.82-1.37.18.18,0,0,1,.2.12.36.36,0,0,0,.19.2c0-.27,0-.4-.15-.4.05,0,.07-.06.07-.19s.06-.2.16-.2a.6.6,0,0,0,.16.79c.1,0,.13-.06.08-.16a.51.51,0,0,1-.08-.24v-1a15.62,15.62,0,0,1,3.45-5.52,48.36,48.36,0,0,1,4.7-4.2.93.93,0,0,1-.51.55,1.32,1.32,0,0,0-.51.39l-.07.08v.08s0,.07,0,0,0-.09,0-.2A3,3,0,0,0,42,5.88l.78-.62c.26-.11.39-.21.39-.32h-.15a2.09,2.09,0,0,1,1-.66,2.55,2.55,0,0,0,1-.59.19.19,0,0,0-.08.15c0,.06,0,.11-.16.16a.14.14,0,0,0-.16.16c0,.1,0,.13.08.08A.33.33,0,0,0,44.77,4c.16,0,.25,0,.28-.12s.14-.11.35-.11q0-.16-.12-.12c-.08,0-.14,0-.2-.12.27-.16.45-.21.55-.16s0,.16-.11.16-.12.05-.12.16.14,0,.43-.12.25-.2-.12-.2A.92.92,0,0,0,46,3.18c.07-.08,0-.12-.12-.12.1-.1.18-.14.23-.12a.68.68,0,0,0,.4,0v.32q.15.07.15-.12a.27.27,0,0,1,.16-.27l.08.07-.08-.07c.16-.16.3-.29.43-.4a3.57,3.57,0,0,1,.51-.31c0,.11,0,.16-.08.16s-.08,0-.08.08c.21-.16.38-.21.51-.16a1.22,1.22,0,0,0,.43.08.57.57,0,0,0-.15-.4s.15,0,.31,0,.24,0,.24-.23a.2.2,0,0,0,.23.12c.11,0,.13,0,.08.11.21,0,.31-.06.31-.19s.08-.22.24-.28q-.07.17,0,.12c.05,0,.08,0,.08.12A7.58,7.58,0,0,1,52.73.83a17.85,17.85,0,0,1,3.17,0A9.49,9.49,0,0,1,60.41,4a6.66,6.66,0,0,1,1.14,5.61,9.59,9.59,0,0,1-.94,3.45,18.42,18.42,0,0,1-1.73,2.82A4,4,0,0,1,57.39,18q-1.24,1.8-2.66,3.48c-.94,1.13-1.94,2.24-3,3.34a6.41,6.41,0,0,1-1.14,1.41,16.63,16.63,0,0,1-1.37,1.17c-.89,1-1.8,2-2.74,2.94s-1.86,1.85-2.75,2.79A8.49,8.49,0,0,0,45,33.09c.34-.05.74-.13,1.21-.24,0,.16,0,.24-.08.24.21,0,.32-.08.32-.39.1.1.18.1.23,0s.19-.11.39,0c-.1.15-.13.26-.07.31s.22,0,.19-.16a.19.19,0,0,1,.12-.23c.1,0,.16,0,.16.12s.05.11.15.11a.52.52,0,0,1,0-.39c.11.21.19.24.24.08s.1-.13.16.08a.46.46,0,0,1,.51-.24.74.74,0,0,0,.51,0c0,.06-.06.13-.16.24a.38.38,0,0,0,.27,0c.08,0,.09.06,0,.27.11,0,.13-.06.08-.19a.45.45,0,0,1,0-.36,4.62,4.62,0,0,1,1.41-.23v.23q0,.16.12,0t.27,0a.2.2,0,0,0-.23-.23.3.3,0,0,1,.31-.12,1.42,1.42,0,0,0,.55,0c-.05.26-.21.31-.47.16a.22.22,0,0,0,0,.23.19.19,0,0,1-.12.24.53.53,0,0,1,.12.15.38.38,0,0,0,.2.16c.1,0,.11-.12,0-.19s0-.09.19,0a.31.31,0,0,0,.08-.36c-.05-.13,0-.24.31-.35-.15.16-.1.24.16.24s.17-.08,0-.08-.14,0,0-.16a1.7,1.7,0,0,0,.86-.08c.37-.1.5,0,.4.32.1,0,.14-.08.11-.24s0-.18.12-.08,0,.09,0,.12-.05.07,0,.12.2,0,.12-.16,0-.18.19-.08v.24c.16,0,.24,0,.24-.08H54a.53.53,0,0,1,.47-.24c.21,0,.43,0,.67,0l.67.08a1.11,1.11,0,0,0,.55,0c.2.11.32.13.35.08s.17,0,.43,0v.16a2.79,2.79,0,0,1,1.53.08,6.29,6.29,0,0,0,1.76.31C60.35,32.65,60.35,32.68,60.45,32.66ZM32.23,37.17c0,.1,0,.13-.12.07S32.07,37.17,32.23,37.17Zm0,0c-.11-.06-.12-.08,0-.08S32.28,37.11,32.23,37.17ZM33,35.83l-.08.08Zm.51-20.11c0,.19,0,.25-.2.2.11-.26.13-.42.08-.47S33.49,15.54,33.52,15.72Zm-.2,20.43c.06.15.08.15.08,0S33.38,36,33.32,36.15Zm.4.31h.15v-.08h-.15Zm.07-.71a.33.33,0,0,0,.28-.19c.08-.13,0-.2-.12-.2.11.16.09.23,0,.2S33.74,35.6,33.79,35.75Zm.16-.94c.11-.15.16-.17.16,0S34.06,34.92,34,34.81Zm.16-.39a.14.14,0,0,1,.16.16h-.08C34.13,34.58,34.11,34.53,34.11,34.42ZM34.27,36a.14.14,0,0,0-.16.16c0-.11.09-.13.12-.08S34.27,36.09,34.27,36Zm.31-1.18v.08c-.21.21-.22.24,0,.08S34.74,34.76,34.58,34.81Zm-.16-19.2c.11.15.16.15.16,0S34.53,15.45,34.42,15.61Zm0,20.07c.11-.11.13-.16.08-.16S34.42,35.57,34.42,35.68ZM38.19,9.41a20.67,20.67,0,0,0-2.28,2.51,6.63,6.63,0,0,0-1.33,3.29A10.49,10.49,0,0,1,36.11,12a31.2,31.2,0,0,1,2.08-2.63L41,6.59c-.53.42-1,.85-1.49,1.29A11.07,11.07,0,0,0,38.19,9.41Zm-3,25.48a.68.68,0,0,0-.4.08C35.08,35.08,35.21,35.05,35.21,34.89Zm0-20.62c0-.1,0-.15.07-.15s.06-.08,0-.24a.18.18,0,0,0-.19.16A.18.18,0,0,0,35.21,14.27Zm.31,20.15s0,.07-.08,0S35.41,34.42,35.52,34.42ZM36,34h.16v-.16H36Zm.31-.55c.16,0,.25,0,.28-.08a1.76,1.76,0,0,1,.12-.23C36.64,33.17,36.51,33.27,36.3,33.48Zm.2-1.37q.12-.12.12.12Q36.38,32.23,36.5,32.11Zm.43.51c-.16,0-.23,0-.23.08s.1-.07.15,0S36.93,32.67,36.93,32.62ZM37,11.29a.12.12,0,0,1-.16,0c-.05,0-.08,0-.08,0C36.93,11.37,37,11.35,37,11.29Zm.08,21.41q-.08,0-.12.15c0,.11,0,.16.12.16V32.7h.15v-.16C37.14,32.54,37.09,32.59,37.09,32.7Zm0-21.72a.07.07,0,0,0,.08-.08c.15,0,.18,0,.07-.12s-.13,0-.07.12Zm.08,5.72c0-.1.07-.09.07,0S37.22,16.86,37.17,16.7Zm.23,15.21Zm.08.47Zm.39-.23A.24.24,0,0,1,38,32s0-.08-.08-.08-.15,0-.15.12S37.77,32.15,37.87,32.15Zm0-22.07c-.08,0-.06.09,0,.19s.16-.1.16-.31A.56.56,0,0,1,37.83,10.08Zm.75,21.13c-.32.05-.53.29-.63.7A6.82,6.82,0,0,0,38.58,31.21Zm.31-.32a.22.22,0,0,0,.08-.15.32.32,0,0,0-.27.15c-.08.11,0,.19.11.24A.35.35,0,0,1,38.89,30.89Zm.94-1.09a1.15,1.15,0,0,0-.47.39l-.31.47a1.33,1.33,0,0,0,.47-.39l.31-.47a1.49,1.49,0,0,0,.59-.4c.13-.15.27-.34.43-.54a1.42,1.42,0,0,0-.63.47A4.6,4.6,0,0,1,39.83,29.8ZM39.44,8.47c.21,0,.26,0,.16-.12S39.44,8.31,39.44,8.47Zm.63-.71H40v.16c0-.1,0-.13,0-.08S40.07,7.87,40.07,7.76Zm0,22.35a.37.37,0,0,0,.27-.12c.08-.08.07-.14,0-.19A.31.31,0,0,1,40.07,30.11Zm.66-22.74s0-.08,0-.08S40.76,7.43,40.73,7.37Zm.12,20.94q.07.23.12,0C41,28.15,41,28.15,40.85,28.31Zm.16.31a.45.45,0,0,0-.16.31c.16-.05.22-.09.2-.11s0-.09,0-.2h.16v-.24A.26.26,0,0,0,41,28.62Zm0-21.72c.08.11.14.08.19-.08C41,6.77,41,6.8,41.05,6.9Zm.43,21.33q-.24,0-.24.15.24,0,.24-.15l1-1c.29-.29.56-.59.82-.9-.31.26-.63.53-.94.82A5.16,5.16,0,0,0,41.48,28.23ZM41.4,6.67h.24V6.51H41.4ZM42,6.35V6.27c0-.1,0-.15-.08-.15A.32.32,0,0,0,42,6.35Zm.31,20.7a.24.24,0,0,1,.16-.23c.1-.05.08-.13-.08-.24a.25.25,0,0,1-.16.24C42.08,26.87,42.11,27,42.26,27.05ZM42.18,6.12a.9.9,0,0,0,.24,0c.1,0,.08-.09-.08-.2,0,.11,0,.15-.08.12S42.18,6,42.18,6.12Zm.63-.86a.25.25,0,0,0-.23.15c-.06.11-.16.11-.32,0a.37.37,0,0,1,.24-.27,1.44,1.44,0,0,0,.39-.2A.49.49,0,0,1,42.81,5.26Zm-.47,22.58c0,.15.08.14.08,0S42.39,27.63,42.34,27.84Zm.31-22.11c.06.15.08.15.08,0S42.71,5.57,42.65,5.73Zm.48,19.91c-.06.11-.11.16-.16.16s-.08.05-.08.15-.12-.13,0-.23A.2.2,0,0,1,43.13,25.64Zm0-15.6c.1,0,.12,0,.07,0S43.13,10.14,43.13,10Zm.15-4.78c-.1,0-.13,0-.08.11s.08,0,.08-.11c.11.1.17.1.2,0s0-.16-.12-.16A.23.23,0,0,0,43.28,5.26Zm0,20.38c-.1-.05-.09-.1,0-.16s.14-.15,0-.31c.1.11.13.17.08.2s0,.09.08.19C43.36,25.67,43.28,25.69,43.28,25.64Zm.24.63a.69.69,0,0,1,.31-.39c.16-.11.16-.21,0-.32,0,.11-.08.21-.23.32A.24.24,0,0,0,43.52,26.27Zm.15-21.56c-.1,0-.15,0-.15.08S43.67,4.76,43.67,4.71Zm.16,20.5c0,.08,0,.12-.16.12v-.08l-.07-.08a.38.38,0,0,1,.23-.2c.1,0,.16,0,.16.2C43.88,25.12,43.83,25.13,43.83,25.21Zm-.16.12v.08c-.05,0-.07,0-.07,0S43.62,25.33,43.67,25.33ZM43.75,34c-.1,0-.15,0-.15.08S43.75,34,43.75,34Zm.08-29.09c-.1,0-.13,0-.08.12s.08,0,.08-.12c.1,0,.13,0,.08,0S43.83,4.81,43.83,4.86Zm.31-.47a.71.71,0,0,0-.31.08c.16,0,.26,0,.31-.08s.16,0,.16-.07S44.14,4.24,44.14,4.39Zm-.07,21.17a.26.26,0,0,0,.23-.12c.05-.07,0-.16-.08-.27a.19.19,0,0,1-.11.2C44,25.39,44,25.46,44.07,25.56Zm.07-20.77a3,3,0,0,0,.47-.32A.52.52,0,0,0,44.14,4.79Zm.08,19.75a.44.44,0,0,0,.08-.31c.11,0,.16.07.16.2S44.38,24.6,44.22,24.54Zm5.65-5a2.7,2.7,0,0,1-.71.75,1.92,1.92,0,0,0-.63.82,2.22,2.22,0,0,0-1.09,1,4.94,4.94,0,0,0-1.34,1.41,6.41,6.41,0,0,1-.94.79,1.38,1.38,0,0,0-.62.86l.78-.78a11.36,11.36,0,0,0,.78-.87c.27-.26.51-.49.75-.7a3.33,3.33,0,0,0,.59-.71,6.26,6.26,0,0,0,1.09-1,.07.07,0,0,1,.08-.08l.08.08a2.24,2.24,0,0,0,.71-.7,5.06,5.06,0,0,0,.47-.87.5.5,0,0,0,.27-.07c.08-.05.07-.11,0-.16C50,19.4,49.87,19.47,49.87,19.52ZM44.61,32.7s-.06,0,0,.07S44.61,32.8,44.61,32.7Zm.08-28.31A.47.47,0,0,0,45,4.24C44.8,4.24,44.69,4.29,44.69,4.39Zm0,19.6s.08-.07.24-.07C44.93,24,44.85,24,44.69,24Zm0,9.49c.21,0,.32-.1.32-.16C44.8,33.32,44.69,33.38,44.69,33.48Zm.39.27c0-.12,0-.11-.07,0S45.08,33.89,45.08,33.75Zm.16-29.59c0-.11,0-.14.12-.12s.09,0,0-.12a.16.16,0,0,0-.24.08C45.11,4.11,45.14,4.16,45.24,4.16Zm.16,29.48a.07.07,0,0,0,.08-.08C45.42,33.56,45.4,33.59,45.4,33.64ZM45.63,23c.11.06.13.11.08.16a.24.24,0,0,0-.08.16C45.48,23.24,45.48,23.13,45.63,23Zm.08-19.2c-.1,0-.15,0-.15.07S45.71,3.82,45.71,3.77Zm0,29.71c-.1.16-.1.17,0,0S45.82,33.38,45.71,33.48ZM45.63,3.37c0-.05,0-.05.08,0Zm.55-.31c-.15.11-.15.16,0,.16S46.34,3.17,46.18,3.06Zm0,30.42c-.1.11-.09.11,0,0S46.34,33.38,46.18,33.48Zm.24-29.95c-.05-.1,0-.13.08-.08s.13,0,.07-.08-.18-.05-.23,0S46.31,3.48,46.42,3.53Zm.35,29.87c.13,0,.17-.08.12-.23-.32,0-.45.1-.39.31A.38.38,0,0,1,46.77,33.4Zm-.2-.39a.48.48,0,0,0,.32-.08C46.68,32.93,46.57,33,46.57,33Zm.08-10.82c.11-.21.16-.22.16,0S46.76,22.35,46.65,22.19ZM46.89,3.3c-.11,0-.13,0-.08,0s.08,0,.08,0a.17.17,0,0,0,.19-.12c0-.08.09-.07.2,0V3A.37.37,0,0,0,46.89,3.3ZM47,33.4a.21.21,0,0,0,.24-.23A.21.21,0,0,0,47,33.4Zm.08-30.65c.11.1.16.09.16,0S47.23,2.59,47.12,2.75Zm.32-.16c-.06.11-.09.13-.12.08s0,0,0,.08A.14.14,0,0,0,47.44,2.59ZM47.28,33h.08v-.16h-.08Zm.31.24c.16-.06.13-.11-.07-.16C47.41,33.25,47.44,33.3,47.59,33.25Zm.24-30.5c-.16,0-.24,0-.24.08s-.07,0-.07.07,0-.07.07-.07.24,0,.24-.08a.21.21,0,0,0,.27,0c.08-.08,0-.15-.11-.2.1.16.1.21,0,.16S47.83,2.64,47.83,2.75Zm-.24.7c-.05,0-.07,0-.07.08S47.59,3.51,47.59,3.45Zm.24-1c-.16,0-.24,0-.24.08C47.75,2.51,47.83,2.49,47.83,2.43Zm0,30.27c0,.1-.11.13-.16.07s-.08,0-.08.08Q47.83,32.85,47.83,32.7Zm.08.47H48c.1-.11.1-.16,0-.16s-.16,0-.16.08Zm.19-.43c0-.13,0-.15-.11,0S48.08,32.87,48.1,32.74Zm.2,0c.05.1.09.09.12,0S48.4,32.54,48.3,32.7Zm.23-30.19c.06,0,0-.1-.07-.15s0,.07-.08.07-.05.06,0,.16A.22.22,0,0,0,48.53,2.51Zm-.07.24c-.06,0-.08,0-.08.08A.07.07,0,0,0,48.46,2.75Zm.23,30c0-.05,0-.07.08,0s0,0,0-.12-.11,0-.16,0S48.59,32.7,48.69,32.7Zm.08.39c.16,0,.21-.05.16-.16h-.24C48.59,33,48.61,33.09,48.77,33.09Zm-.08-11.76c.05.16.08.17.08,0S48.74,21.22,48.69,21.33Zm.55,12.46s.07,0,0-.07S49.24,33.69,49.24,33.79Zm.16-1.33c-.06,0-.08,0-.08.08h.16A.07.07,0,0,0,49.4,32.46Zm.08.39c-.11-.1-.16-.1-.16,0S49.37,33,49.48,32.85Zm.15.08s.13-.08.24-.23C49.71,32.7,49.63,32.77,49.63,32.93Zm.08-.39h.16v-.16h-.16Zm.08-31.13c0-.15,0-.18.12-.07S50,1.47,49.79,1.41Zm.08.47c0,.06,0,.07,0,0s0,0,0,0S49.87,1.94,49.87,1.88ZM50,32.54a.75.75,0,0,0,.31-.08c.1-.05.1-.08,0-.08s-.07.12-.2,0S49.89,32.38,50,32.54Zm.39-31.36a.46.46,0,0,1-.39.23C50,1.26,50.08,1.18,50.34,1.18Zm.08,31.52a.17.17,0,0,1-.12,0s-.09,0-.2,0-.08.15.08.15.24-.05.24-.15c.1.1.18.15.23.15.11-.2.08-.31-.08-.31S50.42,32.65,50.42,32.7Zm0-30.89c-.11,0-.16,0-.16.07S50.42,1.75,50.42,1.81Zm-.16,17.4c.05.05.1,0,.16,0a.26.26,0,0,1,.23-.12v-.23Q50.41,18.82,50.26,19.21Zm.31,12.47c0-.11.08-.09.08,0S50.62,31.83,50.57,31.68Zm.71-13.57a.18.18,0,0,0-.2.12.33.33,0,0,1-.19.2C51.15,18.58,51.28,18.48,51.28,18.11Zm-.16-.47q0,.24-.12.12T51.12,17.64Zm.32-16.23-.08.08c0-.05,0-.06.08,0s.07,0,.07,0Zm-.08,31.05c.1-.16.15-.17.15,0S51.46,32.57,51.36,32.46Zm.23-14.66q-.23,0-.12.12t.12-.12c.11,0,.16-.08.16-.23S51.59,17.64,51.59,17.8Zm.16,19.05s0,.07,0,0,0,0,0,0A.07.07,0,0,0,51.75,36.85ZM52,32.54a.15.15,0,0,0,.2,0c.08,0,.17,0,.28.08v-.16a.29.29,0,0,1-.24-.08c.05.11,0,.13-.16.08S51.88,32.44,52,32.54Zm.16.47c-.1-.16-.16-.16-.16,0S52,33.17,52.14,33Zm-.08-15.68c.11,0,.13,0,.08-.12S52.06,17.17,52.06,17.33Zm.12-.82c.13,0,.12,0,0,.11C52,16.57,52.05,16.53,52.18,16.51Zm0-15.33c-.11.16-.09.17,0,0S52.38,1.07,52.22,1.18Zm.08,15.91c0,.06.08,0,.23-.15a.21.21,0,0,0-.27,0C52.18,17.06,52.19,17.09,52.3,17.09ZM52.46,16c0,.05,0,.06-.08,0S52.35,16,52.46,16Zm.07-.24c-.1.16-.13.24-.07.24C52.46,15.84,52.48,15.76,52.53,15.76Zm0-14.58c0,.1,0,.13,0,.08S52.48,1.18,52.53,1.18Zm0,14.58a.24.24,0,0,1,.16-.08A.21.21,0,0,1,52.53,15.76Zm.24,16.7c.1,0,.13,0,.08.08s0,.08.08.08,0-.08,0-.08,0,0,0-.08h-.23c-.05,0-.08,0-.08,0s0,0-.08,0-.08.21.08.32a.16.16,0,0,1,0-.12A.21.21,0,0,0,52.77,32.46Zm.16-17c0,.1,0,.16-.08.16a.21.21,0,0,0-.16.07c0-.1,0-.15.08-.15S52.93,15.5,52.93,15.45Zm0,16.7c-.21,0-.29,0-.24,0s.13.06.24,0,0-.08,0-.08S52.82,32.1,52.93,32.15Zm0-15.68c-.11,0-.14,0-.08,0s.08,0,.08,0a.68.68,0,0,0,.23-.39C53,16.08,52.93,16.21,52.93,16.47Zm0-1c0-.11,0-.16,0-.16S53,15.34,52.93,15.45Zm0,21.44s0,0,0,0l-.07.08S52.94,36.87,53,36.89Zm0-21.28c0-.06.06-.08.16-.08S53.11,15.61,53,15.61Zm.08,16.46c-.1.16-.09.17,0,0S53.24,32,53.08,32.07Zm.47-17.41v.16c-.1-.05-.13-.08-.08-.08S53.55,14.72,53.55,14.66Zm.08-.39c0,.05-.05.08-.16.08S53.53,14.38,53.63,14.27Zm0,1.18a.23.23,0,0,0-.08.16.19.19,0,0,1-.08.15c.21,0,.26-.1.16-.31,0,0,.07,0,0-.08S53.63,15.34,53.63,15.45Zm-.16,17.09h.16a.14.14,0,0,0-.16-.16Zm.08-18.42c.11,0,.13.05.08.15h-.08Zm.08,18.73c0,.11.08.1.08,0S53.68,32.7,53.63,32.85Zm.31-18.11h-.23c.1-.05.16-.1.16-.15s.05-.08.15-.08v.15Zm-.23,17.8a.83.83,0,0,1,.47.08v-.24a1.06,1.06,0,0,1-.31,0C53.76,32.32,53.71,32.38,53.71,32.54Zm.16-17.33c.05.16.07.17.07,0S53.92,15.11,53.87,15.21Zm.07-1.41c.06-.1.1-.09.12,0S54.05,14,53.94,13.8ZM54.1,15c.16,0,.2,0,.12-.08S54.1,14.82,54.1,15Zm.39,17.56s0-.08.16-.08a.14.14,0,0,0,.16.16v-.24a.24.24,0,0,0-.32,0C54.39,32.42,54.39,32.49,54.49,32.54Zm.16-18.89s0,.13-.16.23c0-.1,0-.16,0-.16s0,0,0-.07Zm.24-.08c-.06,0-.08,0-.08,0s-.06,0-.16,0,0-.16,0-.16.12-.05.12-.16h.08ZM55,32c-.36,0-.48.05-.35.16S54.94,32.2,55,32Zm.47-18.74c-.1,0-.13.06-.08.16s.08.05.08-.16q.16.09.12,0t.12-.15Q55.44,13.1,55.51,13.25Zm.08-.86a.19.19,0,0,1,.12-.2.17.17,0,0,0,.12-.19c.1-.11.11-.07,0,.12S55.7,12.39,55.59,12.39Zm.12-.47c.08-.05.12,0,.12.08C55.67,12,55.63,12,55.71,11.92Zm.82-.39a.25.25,0,0,1,.16-.24c.1,0,.1-.13,0-.23a.33.33,0,0,1-.16.27C56.43,11.41,56.43,11.48,56.53,11.53Zm.16-.55h-.24a.52.52,0,0,1,.24-.47c.1.05.1.12,0,.2S56.58,10.88,56.69,11Zm-.24,1h.24v-.16h-.24Zm.47-1.88c.11.1.13.18.08.23a.32.32,0,0,1-.23.08.12.12,0,0,1,.08-.12S56.92,10.22,56.92,10.12Zm.24,22.42h.23V32.3s-.07,0-.07.08Zm.63-23.6c.05.11.07.09.07,0S57.84,8.78,57.79,8.94Zm.9,22.89c0,.06,0,.08,0,.08S58.66,31.78,58.69,31.83Zm.19.79h.24S59,32.57,58.88,32.62Zm.79.08c-.05-.05-.08-.05-.08,0s.08,0,.08.07Zm.15,3.45c-.1.1-.15.13-.15.07S59.82,36.2,59.82,36.15ZM60,32.23h.08c0,.1,0,.13,0,.07s0,0,0,.08Zm0,4h.08v-.07H60Zm.31-3.84s-.07,0-.07-.08S60.24,32.28,60.29,32.38Zm0,0c.11,0,.16,0,.16,0s0,0,.08,0l-.08.08a.07.07,0,0,0-.08-.08S60.29,32.44,60.29,32.38Z"/><path class="cls-1" d="M73.23,39.75a2.84,2.84,0,0,1-.94,1.73,11.55,11.55,0,0,1-1.65,1.25,2.88,2.88,0,0,1-1.45-.19,3.6,3.6,0,0,1-1-.67,9.13,9.13,0,0,0-.62-1.33,3.27,3.27,0,0,1,.47-1.88,5.35,5.35,0,0,1,1.17-1.26.53.53,0,0,1,.47.08c.16.1.24.05.24-.16a7.65,7.65,0,0,0,1.45.83c.44.18.93.4,1.45.66a1.11,1.11,0,0,0,.16.59A1.86,1.86,0,0,0,73.23,39.75Z"/></g></g></svg>