<svg xmlns="http://www.w3.org/2000/svg" viewBox="0 0 71.96 49.39"><defs><style>.cls-1{fill:#3d5afe;stroke:#3d5afe;}</style></defs><title>03</title><g id="Layer_2" data-name="Layer 2"><g id="Layer_1-2" data-name="Layer 1"><path class="cls-1" d="M3.29,22.15c0,.16,0,.18.12.08s0-.13-.12-.08a1.24,1.24,0,0,1,.12-.82,1.56,1.56,0,0,0,.2-.75c0-.16,0-.18.08-.08a.15.15,0,0,0,.23.08c.05-.16,0-.22,0-.2s-.14,0-.19-.11a60.91,60.91,0,0,1,3.37-8.82A31.68,31.68,0,0,1,12,4h.07s.06.08.16.08,0-.15,0-.12a.15.15,0,0,1-.12,0V3.8l.08-.08c.16-.1.21-.06.16.12s0,.28.08.28a1.57,1.57,0,0,1,.43-1,2.06,2.06,0,0,1,.74-.51.55.55,0,0,0,.4,0c.1-.06.2,0,.31.07.1-.26.34-.32.71-.19a.7.7,0,0,0,.86-.2c.47-.05,1-.09,1.56-.11a11.2,11.2,0,0,1,1.65,0,5.14,5.14,0,0,1,1.45.36,2.48,2.48,0,0,1,1.14,1,.55.55,0,0,0,.08.51,1.34,1.34,0,0,1,.23.51c-.1,0-.14,0-.12-.08s0-.08,0-.08a7.36,7.36,0,0,0-.28,1.18A3.67,3.67,0,0,1,21,6.94a.45.45,0,0,0,.47.16A1.55,1.55,0,0,1,22,7a8.8,8.8,0,0,1,3,.66,9.75,9.75,0,0,1,2.51,1.53,1.62,1.62,0,0,0,.59.71c.28.21.56.42.82.63.31.83.63,1.66.94,2.46a10.7,10.7,0,0,1,.63,2.79.67.67,0,0,1,.19.27c0,.08.07.17.12.28a19.93,19.93,0,0,1,0,5.45q-.34,2.63-.74,5.29-.16,0-.12.12a.28.28,0,0,1-.12.27,1.77,1.77,0,0,1-.31,1.18,7,7,0,0,1-.67,2.11,19,19,0,0,0-.9,2.12,1,1,0,0,1,0,.24.35.35,0,0,1-.2.23,12.62,12.62,0,0,1-1.25,3.29,2.78,2.78,0,0,1-.31.4,2.23,2.23,0,0,0-.32.39.76.76,0,0,0-.19.47,3.49,3.49,0,0,1-.12.55,2.76,2.76,0,0,1-.55.66,3,3,0,0,0-.55.67c-.73,1.05-1.46,2.06-2.19,3.06a10.3,10.3,0,0,1-2.67,2.51,10,10,0,0,1-1.72,1.09,11,11,0,0,1-2.12.79c.05,0,0,0-.08.15a17.18,17.18,0,0,1-3,.2,5.76,5.76,0,0,1-2.55-.67A.16.16,0,0,0,10,47a.31.31,0,0,1-.2,0A39.2,39.2,0,0,1,5,43.83a9.07,9.07,0,0,1-3.14-5A.3.3,0,0,0,2,38.5c-.05-.13,0-.2.08-.2s-.08-.16-.24-.16a19.05,19.05,0,0,1-.31-5.41c.16-1.77.34-3.5.55-5.17.1,0,.16,0,.16.08s0,0,.07-.08v-.24l-.15.16c0-.57.13-1.12.23-1.65s.21-1,.32-1.41c.05,0,.07.11.07.32A2.71,2.71,0,0,0,3,24.11c0-.21.1-.44.16-.71-.21.06-.28.2-.2.43s0,.38-.27.44c.1-.42.19-.79.27-1.1s.17-.66.27-1ZM1.65,33c.1,0,.17.12.19.35a.85.85,0,0,1,0,.51.29.29,0,0,1-.07-.35.31.31,0,0,0-.08-.35.84.84,0,0,0-.08.43c0,.18,0,.3.08.35.05-.11.09-.09.11,0a.57.57,0,0,0,.12.27A7.69,7.69,0,0,1,2,33.09,2.85,2.85,0,0,0,1.88,32C1.88,32.52,1.8,32.86,1.65,33ZM1.8,32c0-.05,0-.08-.07-.08s-.08,0-.08.08.08,0,.08.08S1.75,32.13,1.8,32Zm-.07,3.8c0-.13,0-.14-.08,0S1.73,36,1.73,35.83Zm.07-4a.41.41,0,0,1,0-.39c.08-.1,0-.16-.11-.16a1.75,1.75,0,0,1,0,.32A.18.18,0,0,0,1.8,31.79ZM2,35.71a1.48,1.48,0,0,1,0-1.17c-.11,0-.16,0-.16-.08s0-.08-.08-.08a1.37,1.37,0,0,1-.07.78C1.62,35.48,1.73,35.66,2,35.71Zm-.31,1.34c.05.15.07.15.07,0S1.78,36.89,1.73,37.05Zm.15-7A.53.53,0,0,1,2,29.75c.08-.1,0-.13-.2-.07a.22.22,0,0,1,0,.27C1.75,30,1.78,30.07,1.88,30.07ZM1.8,35.79c0,.26.06.35.16.28S2,35.9,1.8,35.79Zm0,.39c.06.16.08.17.08,0S1.86,36.08,1.8,36.18Zm0,.32c.11.21.16.23.16.07S1.91,36.39,1.8,36.5Zm0,1c.06.15.08.15.08,0S1.86,37.36,1.8,37.52Zm.08-8.32a.26.26,0,0,1,.24.16c0-.21-.08-.31-.24-.31Zm.24,8V37s-.08-.08-.24-.08A.3.3,0,0,0,2.12,37.2Zm0-5.41a6,6,0,0,1,.11-1.1,2.59,2.59,0,0,0,0-1.17A2.49,2.49,0,0,1,2,30.66,1.16,1.16,0,0,0,2.12,31.79Zm.15-2.35a.32.32,0,0,0,.16-.39.5.5,0,0,1,.08-.47c-.11,0-.17-.07-.2,0a.12.12,0,0,1-.11,0c0-.16-.06-.18-.16-.08A1.75,1.75,0,0,1,2.27,29.44Zm-.15-1.33H2.2V28H2.12Zm.08,9.6c0-.13,0-.14-.08,0S2.2,37.84,2.2,37.71Zm0,.75c-.06,0-.08,0-.08.07S2.2,38.51,2.2,38.46Zm.07-10c.21,0,.3-.12.28-.35s-.12-.35-.28-.35,0,.14,0,.27A.63.63,0,0,1,2.27,28.42Zm.24-1.72c-.16.1-.24.13-.24.07C2.43,26.77,2.51,26.75,2.51,26.7Zm-.16-.32c.11.16.16.17.16,0S2.46,26.28,2.35,26.38Zm0,13.41c.11.1.16.09.16,0S2.46,39.63,2.35,39.79Zm.24-12a.78.78,0,0,0,.08-.35A1.42,1.42,0,0,1,2.74,27c-.1,0-.18.1-.23.31A.46.46,0,0,0,2.59,27.79ZM2.51,36c.05.1.08.09.08,0S2.56,35.87,2.51,36Zm0,.47c.05.21.08.22.08,0S2.56,36.34,2.51,36.5Zm.23-11.22c-.05,0-.07,0-.07,0s0,0-.08,0,0,.1,0,.15S2.74,25.39,2.74,25.28Zm-.07.4c0-.16,0-.19-.08-.08v.16Zm-.08,5.56c.05.11.08.08.08-.07S2.64,31,2.59,31.24Zm0,8.78c.05.16.08.17.08,0S2.64,39.92,2.59,40ZM2.67,26.7c.15.05.23,0,.23-.16s-.08-.21-.23-.16Zm.15-.55c-.1,0-.1,0,0,.08s.11,0,0-.08c.11,0,.12-.12,0-.2S2.77,25.94,2.82,26.15Zm.24-.55c-.11,0-.12,0,0-.16s.06-.23,0-.23a.35.35,0,0,0-.12.35C2.89,25.69,3,25.7,3.06,25.6Zm.39-2.12c-.11.21-.22.49-.35.82a.72.72,0,0,0,.11.83.8.8,0,0,1,.08-.75,1.24,1.24,0,0,0,.16-.9c.1-.26.21-.53.31-.82a.91.91,0,0,0-.07-.82,2.93,2.93,0,0,1-.12.86A2.64,2.64,0,0,0,3.45,23.48Zm-.39-.23c0,.26,0,.28,0,.07S3.11,23.09,3.06,23.25Zm.08-.32c.1,0,.17-.06.19-.19s0-.2-.12-.2q0,.24,0,.24S3.14,22.83,3.14,22.93Zm.15-.47c.11.16.16.16.16,0S3.4,22.31,3.29,22.46Zm.32-1.1a1.08,1.08,0,0,0-.16.2c-.05.08,0,.17.16.28a.77.77,0,0,0,0-.48A.49.49,0,0,0,3.76,21a.5.5,0,0,1,.16-.35q-.31,0-.27.27A.8.8,0,0,1,3.61,21.36Zm-.16.55c0,.11.08.1.08,0S3.5,21.76,3.45,21.91Zm.24,2.59v.16a.23.23,0,0,0,.07-.16ZM4,21.6a.45.45,0,0,1,.15-.31c.11-.11.08-.19-.07-.24a.71.71,0,0,0-.16.28C3.87,21.46,3.89,21.55,4,21.6ZM4.08,20H4a.49.49,0,0,0-.08.32c.26-.05.31,0,.16.27s-.13.35.07.35a.41.41,0,0,0,0-.31.55.55,0,0,1,0-.31c.11-.05.13-.08.08-.08a.07.07,0,0,0-.08.08C4.08,20.11,4,20,4.08,20s.11-.18,0-.23S4,19.75,4.08,20Zm0-.39c.1,0,.18-.08.23-.23s0-.26-.08-.32a.76.76,0,0,0-.08.32A.32.32,0,0,1,4.08,19.56Zm.39-.78a.75.75,0,0,1,.08-.28c0-.13,0-.19-.08-.19a1,1,0,0,1-.08.27C4.34,18.71,4.36,18.78,4.47,18.78Zm.47-.55a1.83,1.83,0,0,0-.39.9c-.06.34-.11.67-.16,1,.1-.26.22-.57.35-.94a2.94,2.94,0,0,0,.2-.94c.1-.05.12-.12,0-.2S4.89,18,4.94,18.23Zm-.39-.08a3.74,3.74,0,0,0,.27-.31.78.78,0,0,0,.12-.47.3.3,0,0,0-.24.31A.87.87,0,0,1,4.55,18.15Zm.15,2.59h.16v-.08H4.7ZM4.94,17c0,.27,0,.31,0,.12S5,16.87,4.94,17ZM5,16.9c.15,0,.22-.07.19-.2a.23.23,0,0,1,.12-.27c.16.15.16.35,0,.58a1.2,1.2,0,0,0-.23.67,2.88,2.88,0,0,0,.47-.78A1.29,1.29,0,0,0,5.65,16c-.06.16-.1.18-.12,0s-.09-.17-.2-.11c0,.26,0,.43-.16.51S5,16.63,5,16.9ZM5.41,16q.15-.08.12.12c0,.13,0,.2,0,.2s-.11.1-.16,0A.36.36,0,0,1,5.41,16Zm.16-.47c.1-.05.13-.11.08-.19s-.11-.07-.16,0l.08.07ZM6,15.33A.28.28,0,0,0,5.65,15,.28.28,0,0,0,6,15.33Zm-.08.55a.3.3,0,0,0,.08-.2A.51.51,0,0,1,6,15.41H5.88a.37.37,0,0,1-.12.27C5.68,15.76,5.72,15.82,5.88,15.88Zm-.08-1.1a1.57,1.57,0,0,0,.47-.71,1,1,0,0,0,.08-.86,3.47,3.47,0,0,1-.23.82C6,14.27,5.91,14.52,5.8,14.78Zm.32.16c.15,0,.23-.11.23-.32C6.19,14.62,6.12,14.73,6.12,14.94Zm.47-.79q-.16,0,0,.12t0-.12c.1-.05.13-.08.07-.08S6.59,14.1,6.59,14.15Zm.15-1a1.25,1.25,0,0,1,.32-.78.76.76,0,0,0,.15-.79,1.3,1.3,0,0,1-.35.83C6.63,12.68,6.59,12.92,6.74,13.13Zm0,.79a.53.53,0,0,1,.12-.32q.12-.15-.12-.15a.21.21,0,0,1,0,.27C6.63,13.8,6.64,13.86,6.74,13.92Zm16.15-3.77-.58-.58A4.69,4.69,0,0,1,21.8,9a.34.34,0,0,1-.51.15,1,1,0,0,0-.75,0,.46.46,0,0,1-.31.24.49.49,0,0,0-.32.31.22.22,0,0,1-.11-.27c0-.13,0-.2-.2-.2a1.11,1.11,0,0,1-.9.24,1,1,0,0,0-.9.31c-.26-.26-.5-.27-.71,0a1.23,1.23,0,0,1-.7.43c-.06-.05,0-.1,0-.15s0-.08-.12-.08c-.32.21-.64.4-1,.59s-.67.38-1,.58c0,0,0,0,0-.11s0-.12-.08-.12a.39.39,0,0,0-.16.47.75.75,0,0,0-.47,0A48.79,48.79,0,0,0,9,22.82,62.17,62.17,0,0,0,6.9,35.32a5.5,5.5,0,0,1,.08.86V37a18.4,18.4,0,0,0,1.13,4.54,7,7,0,0,0,2.55,3.22c0-.11.05-.11.16,0a.2.2,0,0,0,.31,0,11.08,11.08,0,0,0,5.49-3.84,40.92,40.92,0,0,0,3.84-6c0,.16.05.24.16.24s0-.17-.08-.2-.05-.09,0-.2c.52-1.09,1-2.19,1.49-3.29s.89-2.22,1.26-3.37c0,.16.05.23.15.23A11,11,0,0,1,24,25.48a19,19,0,0,0,.75-3c.1-.89.19-1.89.27-3a24.25,24.25,0,0,0,0-3.41,13.1,13.1,0,0,0-.63-3.25A7.18,7.18,0,0,0,22.89,10.15ZM7.06,12.66h.23C7.29,12.61,7.21,12.61,7.06,12.66Zm.35-1.33s0,.05,0,.16h.08C7.45,11.38,7.43,11.33,7.41,11.33Zm.82-.78c.11,0,.13,0,.08-.08s-.08-.08-.08.08c-.15-.11-.17-.21,0-.32s.15-.26,0-.47c-.15.26-.3.51-.43.75a5.6,5.6,0,0,0-.35.74q.39-.08.27-.12c-.07,0,0,0,.2.12A.51.51,0,0,1,8,10.94,1.77,1.77,0,0,0,8.23,10.55Zm-.55,1.09a.25.25,0,0,0-.07.16c0,.1,0,.16.07.16a.76.76,0,0,0,.08-.32Zm.16-1.09c.16,0,.22,0,.2.11a.56.56,0,0,1-.12.2s-.07-.09,0-.12S7.89,10.65,7.84,10.55Zm.63-1.18c-.11.1-.16.13-.16.08S8.47,9.42,8.47,9.37Zm.15.7c-.15,0-.23,0-.23.08a.14.14,0,0,1,.16,0S8.62,10.13,8.62,10.07Zm.32-1.33H8.62a.12.12,0,0,1,0,.16s0,.08,0,.08.26-.25.47-.43.21-.36,0-.51a1.24,1.24,0,0,1-.23.31A.27.27,0,0,0,8.94,8.74Zm-.32,1c.06.21.08.22.08,0S8.68,9.6,8.62,9.76Zm.16-.39c0,.26-.06.3,0,.12S8.78,9.26,8.78,9.37Zm.63-1.88q-.08.31.12.15T9.41,7.49Zm.31-.16c0-.16,0-.18.16-.08s.16.11.16,0c-.11,0-.15,0-.12-.12s0-.16-.2-.11c0,.05,0,.1,0,.15S9.62,7.28,9.72,7.33ZM10,6.94S10,7,10,7,9.93,6.94,10,6.94Zm.11-.24a.12.12,0,0,0,.12.08c.05-.1,0-.17-.08-.19s-.15,0-.15.19C10.09,6.68,10.13,6.65,10.15,6.7Zm.67-1.25c.1.26.09.43,0,.51a.65.65,0,0,0-.27.43c.1-.1.26-.27.47-.51s.26-.4.15-.51c0,.26,0,.34-.07.24A.26.26,0,0,0,10.82,5.45Zm1.25-1c-.05.05-.09,0-.11,0s-.12-.06-.28,0a.26.26,0,0,1,0,.27A.51.51,0,0,0,11.6,5a.36.36,0,0,0-.39.23c.16.11.25.11.28,0A.45.45,0,0,1,11.6,5a.68.68,0,0,1,.28-.28.3.3,0,0,0,.19-.27.26.26,0,0,0,.24-.12c0-.08,0-.14-.08-.19a.12.12,0,0,1-.08.11A.22.22,0,0,0,12.07,4.43Zm.55-.71c.11.06.17,0,.2,0s.09-.11.19-.11a.64.64,0,0,1-.07-.24c0-.05-.08-.08-.24-.08.11.16.11.25,0,.28S12.57,3.62,12.62,3.72Zm.24-1c.1,0,.13.07.08.2s-.13.17-.24.12V2.78C12.81,2.78,12.86,2.76,12.86,2.7Zm.23.63c.32-.1.47-.21.47-.31C13.2,3,13,3.12,13.09,3.33ZM16,10.39c.11-.11.16-.09.16,0S16.1,10.55,16,10.39ZM19,4.9a4.32,4.32,0,0,1-1.41,1.41,2.45,2.45,0,0,0-1.1,1.49A3.64,3.64,0,0,1,18,7.37a8.64,8.64,0,0,0,1.73-.27,1.62,1.62,0,0,0-.16-1.18,2.43,2.43,0,0,1-.31-1ZM17.33,9.84c.1-.1.14-.09.11,0S17.38,10,17.33,9.84Zm2.66,0c.11-.1.15-.09.12,0S20,10,20,9.84Zm.87,24.7c.05,0,.06,0,0-.08S20.86,34.43,20.86,34.54Zm1.25-25c.1.05.1.13,0,.23L22,9.6C22,9.5,22,9.47,22.11,9.53Zm.39.54q-.08-.15-.12-.15s0-.05,0-.16A.45.45,0,0,1,22.5,10.07Zm-.16,21c.06.15.08.17.08,0S22.4,31,22.34,31.09Zm.16-21a.24.24,0,0,1,.16.08c.05.06.13.06.23,0a.55.55,0,0,0,.2.36c.13.13.17.24.12.35a1.45,1.45,0,0,1-.39-.39A2.8,2.8,0,0,0,22.5,10.07Zm.79.79a1.78,1.78,0,0,1,.43.74c.08.29.17.57.27.83a1.76,1.76,0,0,1-.39-.71C23.49,11.41,23.39,11.12,23.29,10.86Zm.7,1.65a6.51,6.51,0,0,1,.71,2.31c.1.86.18,1.68.23,2.47q-.15-1.09-.39-2.43A20.06,20.06,0,0,0,24,12.51Zm.79,5.09c0-.1.11-.12.19,0s.07.15,0,.2a.24.24,0,0,1-.08-.16C24.8,17.55,24.78,17.55,24.78,17.6Zm0,.24c.1,0,.15.1.15.31C24.83,18.15,24.78,18.05,24.78,17.84Zm0,.47c.1,0,.15.1.15.31-.1.05-.14,0-.11-.08A.25.25,0,0,0,24.78,18.31Zm0,.7c.2,0,.27.07.19.2a.7.7,0,0,0-.12.35A1.84,1.84,0,0,1,24.78,19Z"/><path class="cls-1" d="M32.38,40.26a.16.16,0,0,1-.12,0s-.09,0-.19,0c.1-.1.15-.18.15-.23s.15,0,.12.11A.18.18,0,0,0,32.38,40.26Zm0,0a3.74,3.74,0,0,0,.27-.31,1.36,1.36,0,0,0,.2-.4q-.08-.15-.12,0c0,.11-.09.11-.19,0a.51.51,0,0,1,.11-.31c.08-.1.17-.1.28,0a1,1,0,0,1,.08-.47c.1,0,.15,0,.15.08a.07.07,0,0,0,.08.08c.21-.21.28-.37.2-.47s0-.24.19-.4c.11,0,.12,0,0,.12s-.06.12,0,.12a.3.3,0,0,0,.12-.31,1.17,1.17,0,0,1,0-.32.28.28,0,0,1,.2-.08c.08,0,.14-.05.19-.15h.16v.23a1.35,1.35,0,0,1,.59-.55,1.29,1.29,0,0,0,.59-.55c.1,0,.15,0,.15-.11s0-.07.16,0a.49.49,0,0,1,.23-.4l.55-.31v.31a1.61,1.61,0,0,1,.79-.54,4.85,4.85,0,0,0,.94-.47s.08.09.08.11a.19.19,0,0,0,.07.12.67.67,0,0,1,.2-.12.36.36,0,0,0,.2-.19c.1,0,.14,0,.11.11s0,.1.12,0,.13,0,.08,0a.45.45,0,0,0-.16,0l1.18-.32a7.78,7.78,0,0,1,1.25-.23c.11.31,0,.48-.19.51s-.33.17-.28.43c-.26-.11-.43-.08-.51.08s-.22.18-.43.07q0,.32.24.24a1.5,1.5,0,0,1,.47-.08,1.65,1.65,0,0,1-.79.43,1.22,1.22,0,0,0-.7.43c0,.21,0,.27.12.16s.11-.05.11.16a3.37,3.37,0,0,0-1.64,1.13,12.94,12.94,0,0,1-1.26,1.45.14.14,0,0,0,.16.16,1.89,1.89,0,0,0-.51.94c-.08.37-.17.79-.28,1.26,0,.1,0,.15.08.15s.08-.05.08-.15a.94.94,0,0,1,0,.54.84.84,0,0,0,.08.63c0,.11,0,.16.12.16s.12,0,.12.08a1,1,0,0,1,.7.31,1.46,1.46,0,0,1,.79,0,4.19,4.19,0,0,1,.62.43c.73-.05,1.41-.08,2-.08a7.39,7.39,0,0,0,2-.31c.1-.05.13,0,.08.12s0,.19.08.19.24-.09.11-.11-.17-.12-.11-.28a14,14,0,0,0,4.9-1.84q2.24-1.38,4.27-2.94a.14.14,0,0,0-.08-.12s-.08-.09-.08-.2a.21.21,0,0,1,.24.24,25.85,25.85,0,0,0,2.55-2.86,7.72,7.72,0,0,0,1.6-4A9.06,9.06,0,0,0,56.37,30a8,8,0,0,0-.16-1.77,2.37,2.37,0,0,0-1.45-1.64,23.06,23.06,0,0,1-2.15-.94,2.86,2.86,0,0,0-.67-.08.81.81,0,0,1-.59-.24,4.36,4.36,0,0,1-1.25,0,3.58,3.58,0,0,0-1.26.08,25.84,25.84,0,0,1-3.17,2.43c-1.13.73-2.26,1.47-3.41,2.2a1,1,0,0,0-.75,0c-.28.08-.56.17-.82.27a.76.76,0,0,0-.28-.19.62.62,0,0,1-.19-.12,2.27,2.27,0,0,1-2.12-1.37,11.38,11.38,0,0,1-1-2.94c.06.05.08.09.08.11s0,.07.08.12a2.3,2.3,0,0,1,.9-1.06,5.77,5.77,0,0,0,1.14-.9c.1.11.09.19,0,.24s-.2.13-.2.23-.15,0-.15.08,0,.13.08.08a.21.21,0,0,0,.07-.16,1.29,1.29,0,0,0,.87-.55c.41-.2.78-.4,1.09-.58a6.26,6.26,0,0,1,1.1-.51,1.59,1.59,0,0,0-.59.15l-.66.32a4.44,4.44,0,0,1,1.8-.87c0,.21,0,.27.08.16s0-.16-.08-.16a.33.33,0,0,1,.24-.07h.31c.89-.74,1.74-1.45,2.55-2.16a25.18,25.18,0,0,0,2.31-2.31.16.16,0,0,0,0-.12.16.16,0,0,1,0-.12A1.92,1.92,0,0,0,49,16.9a6.53,6.53,0,0,0,.67-1s.07,0,.07,0,.06,0,.16,0c.58-.73,1.16-1.47,1.77-2.2a17.3,17.3,0,0,0,1.6-2.31,14.86,14.86,0,0,0,1.18-2.59,13.7,13.7,0,0,0,.63-3.1A1,1,0,0,1,55,5.21,2.7,2.7,0,0,0,55,4.59a2.75,2.75,0,0,0-1.57-.36,8.56,8.56,0,0,1-1.57,0,17.13,17.13,0,0,0-5.76,2.2,21,21,0,0,0-4.59,3.84c.11-.05.16-.1.16-.16a1.4,1.4,0,0,0-.86.87,1.43,1.43,0,0,1-.86.86.75.75,0,0,0-.08.39c-.37,0-.55.39-.55,1.18-.11,0-.16-.13-.16-.39a.8.8,0,0,0-.15.27c-.06.13,0,.22.07.27s-.15.08-.31.08-.21.11-.16.32a6.86,6.86,0,0,1-1.41-1.34,2.48,2.48,0,0,1-.47-2c.11.11.2.13.28.08s.09,0,0,.16a6.27,6.27,0,0,1,.59-1.92l.9-1.69h.16a1.6,1.6,0,0,1,.59-.94,2,2,0,0,0,.67-.86.57.57,0,0,0,.62-.24,1.73,1.73,0,0,0,.32-.7c.15.21.27.22.35,0a1.33,1.33,0,0,1,.27-.43l1.42-.87a9.78,9.78,0,0,0,1.25-.86c0-.1,0-.16,0-.16s0,0,0-.15.14,0,.12.15,0,.14.19.08.11-.13,0-.23-.08-.16.08-.16.18-.1.39,0a5.87,5.87,0,0,0,1.26-.47,2.75,2.75,0,0,1,1.25-.31s.09,0,.12-.12a.18.18,0,0,0,0-.2c.16.11.29.12.39,0a.23.23,0,0,1,.32,0c.05,0,.07-.05.07-.16A4,4,0,0,1,50.53.59a7.26,7.26,0,0,1,2,.63,35.52,35.52,0,0,1,3.45,2,5.91,5.91,0,0,1,2.43,2.9A17.83,17.83,0,0,1,59,8.19a13.86,13.86,0,0,1,.23,2.59,17.17,17.17,0,0,1-2.82,6.55,34,34,0,0,1-4.55,5.29c1,.63,2,1.28,3,2a16.7,16.7,0,0,1,2.71,2.31,11.45,11.45,0,0,1,2,3,9.58,9.58,0,0,1,.78,4,9.32,9.32,0,0,1-.39,3.21,11.89,11.89,0,0,1-1.26,2.75,13.06,13.06,0,0,1-1.84,2.31A16.31,16.31,0,0,1,54.65,44c-.11.11-.23.21-.36.32a1.48,1.48,0,0,0-.35.39,9.31,9.31,0,0,1-1.61,1,5.55,5.55,0,0,0-1.53,1.06c-.73.26-1.43.55-2.11.86a12.43,12.43,0,0,1-2.28.78,1.71,1.71,0,0,0-1.09.2,1.3,1.3,0,0,1-1,.12c-.11,0-.16,0-.16,0s0,.06-.16.11l-2-.15c-.62,0-1.3-.13-2-.24,0-.1-.06-.14-.16-.12s-.16,0-.16-.11-.08,0-.08.08,0,0-.15,0q-1-.63-2-1.14a6.15,6.15,0,0,1-1.8-1.37c-.58-.89-1.12-1.79-1.61-2.71l-1.53-2.78Zm.16-.71c.1.27.1.36,0,.28S32.43,39.66,32.54,39.55Zm1.8-2.11c0-.26.1-.39.31-.39a1.4,1.4,0,0,0-.11.27A.19.19,0,0,1,34.34,37.44Zm.55-.47c0-.16,0-.25.15-.28a1,1,0,0,0,.32-.12A.71.71,0,0,1,34.89,37Zm.63-.4c-.11,0-.12,0,0-.11S35.57,36.42,35.52,36.57ZM36.93,9.45a.24.24,0,0,1,0,.35.32.32,0,0,0,0,.43Q36.61,10.08,36.93,9.45Zm.07,2c.11-.32.08-.47-.07-.47a1.51,1.51,0,0,1-.08.31C36.8,11.49,36.85,11.54,37,11.49Zm0-2.36c.11,0,.14,0,.08.08a.33.33,0,0,0-.08.24V9.13Zm.87,16.47a1.06,1.06,0,0,1,.55-.59c.26-.13.34-.3.23-.51a1.15,1.15,0,0,1-.55.51A.41.41,0,0,0,37.87,25.6Zm.94,11.29c-.11,0-.15.1-.12.16s.09.07.2.07S38.86,36.89,38.81,36.89Zm1.41-13.41c0,.11-.07.16-.2.16s-.17.08-.11.23a.33.33,0,0,0-.24.08.32.32,0,0,1-.23.08A1,1,0,0,1,40.22,23.48Zm-.67,20.86c0-.05,0-.08,0-.08S39.58,44.39,39.55,44.34ZM39.83,36c.1.1.14.1.11,0S39.88,35.84,39.83,36Zm.51-12.55c.07.06,0,.08-.12.08C40.22,23.38,40.26,23.35,40.34,23.4ZM41.87,3.72a.65.65,0,0,1-.4.24C41.47,3.8,41.6,3.72,41.87,3.72Zm-.4,31q.24-.07.24,0Zm.4-31c0-.15.1-.23.31-.23C42.07,3.65,42,3.72,41.87,3.72Zm.47-.47V3.18c.2,0,.2.06,0,.19S42.13,3.46,42.34,3.25Zm.31,40.69a.07.07,0,0,0-.08.08S42.65,44,42.65,43.94Zm.63-.15c.15,0,.26,0,.31,0s.13,0,.24-.08a1.59,1.59,0,0,1-.36,0C43.34,43.64,43.28,43.68,43.28,43.79Zm.55-21.72c-.06,0-.08,0-.08.08A.07.07,0,0,0,43.83,22.07ZM44,43.71c.16,0,.24-.05.24-.16H44C43.88,43.55,43.88,43.61,44,43.71ZM44.06,22h.08v-.08h-.08Zm1.1-.94a.82.82,0,0,0-.55.31,2.11,2.11,0,0,1-.47.48,2.09,2.09,0,0,0,1-.79,2.21,2.21,0,0,0,.39-.31l.31-.32C45.45,20.63,45.21,20.84,45.16,21.05Zm-.71,22.5a.21.21,0,0,0,.24-.23A.21.21,0,0,0,44.45,43.55Zm.79-41.94a.32.32,0,0,1-.08.23c0,.06-.13,0-.24-.08A.47.47,0,0,1,45.24,1.61ZM45,43.32c.11-.11.16-.13.16-.08S45,43.27,45,43.32Zm1-23a4.16,4.16,0,0,0,1.49-1.41,4.36,4.36,0,0,0-.78.66C46.52,19.76,46.28,20,46,20.27ZM46.41,43v-.23h-.23V43Zm.71-.39v-.23H47v.23Zm.39-23.75c.16.1.28.09.35,0s.07-.23,0-.28a.52.52,0,0,1-.19.12A.18.18,0,0,0,47.51,18.86Zm.39,23.28c-.26,0-.39,0-.39.16a.5.5,0,0,0,.39-.16q.24,0,.12-.12C47.94,42,47.9,42,47.9,42.14ZM49.31,17c-.05,0-.08.08-.08.24,0,0-.07,0-.07.08a1.16,1.16,0,0,0-.63.55l-.08.08a1.15,1.15,0,0,0-.55.62c.21-.1.33-.21.36-.31a.61.61,0,0,1,.19-.31.07.07,0,0,0,.08-.08,1.08,1.08,0,0,0,.31-.24l.32-.31c.05,0,.07,0,.07-.08s.08-.08.08-.24q.24.16.12,0T49.31,17ZM48.06,41.91c.1.15.16.17.16,0S48.16,41.8,48.06,41.91ZM48.69.82c.05.16.08.15.08,0S48.74.61,48.69.82Zm0,40.85a.45.45,0,0,0,.23-.12c.11-.08.11-.14,0-.19a.48.48,0,0,1-.15.11C48.71,41.5,48.69,41.57,48.69,41.67Zm.54-.39q.09.24.12,0T49.23,41.28ZM49.39.82a.15.15,0,0,1,.16,0c.05,0,.08,0,.08,0C49.47.74,49.39.77,49.39.82Zm.32,15.84c.1.05.14,0,.11,0a.18.18,0,0,1,0-.19C49.76,16.43,49.71,16.5,49.71,16.66Zm.86-1.1a7.18,7.18,0,0,0-.63.71,1.67,1.67,0,0,0,.63-.71c.1,0,.13,0,.08-.08S50.57,15.46,50.57,15.56Zm.23-.15a.19.19,0,0,0,.2-.16c0-.1,0-.16-.12-.16s0,.17,0,.2A.19.19,0,0,0,50.8,15.41ZM51,40c-.1.11-.13.19-.08.24a2,2,0,0,1,.24-.2.39.39,0,0,0,.15-.19A.47.47,0,0,0,51,40Zm.39-.31c.21,0,.32-.08.32-.23C51.61,39.48,51.51,39.55,51.35,39.71Zm.16-25.24c-.11,0-.12,0,0,.15s.09.05,0-.15q.15,0,0-.12T51.51,14.47ZM52.22,39c.05,0,0-.06-.08-.11a.16.16,0,0,1,0,.11s0,.1,0,.2C52.14,39.14,52.16,39.07,52.22,39Zm1.25-28.42c.05-.15.08-.14.08,0S53.52,10.83,53.47,10.62Zm.39.71c-.1.1-.17.13-.2.08s0,0,0,.08S53.86,11.43,53.86,11.33Z"/><path class="cls-1" d="M71.42,41.44a2.82,2.82,0,0,1-.94,1.72,13,13,0,0,1-1.64,1.26,2.84,2.84,0,0,1-1.45-.2,3.44,3.44,0,0,1-1-.67,9.13,9.13,0,0,0-.62-1.33,3.38,3.38,0,0,1,.47-1.88,5.35,5.35,0,0,1,1.17-1.26.56.56,0,0,1,.48.08c.15.11.23.05.23-.15a7.87,7.87,0,0,0,1.45.82c.44.18.93.4,1.45.66a1.11,1.11,0,0,0,.16.59A2.06,2.06,0,0,0,71.42,41.44Z"/></g></g></svg>