<svg xmlns="http://www.w3.org/2000/svg" xmlns:xlink="http://www.w3.org/1999/xlink" viewBox="0 0 1378.11 1165.71"><defs><style>.cls-1{fill:none;}.cls-2,.cls-8{fill:#fff;}.cls-2{stroke:#cdd5ff;stroke-miterlimit:10;stroke-width:3px;}.cls-3{fill:#566cd3;}.cls-4{fill:#2747b2;}.cls-5{fill:#b7b9f0;}.cls-6{fill:#e5e9ff;}.cls-7{fill:#779af8;}.cls-9{fill:#8cdef1;}.cls-10{clip-path:url(#clip-path);}.cls-11{fill:#111f54;}.cls-12{fill:#f7b75c;}.cls-13{fill:#f798b3;}</style><clipPath id="clip-path"><rect class="cls-1" x="212.93" y="313.55" width="433.01" height="492.69"/></clipPath></defs><title>comingsoon-1</title><g id="Layer_2" data-name="Layer 2"><g id="Layer_1-2" data-name="Layer 1"><path class="cls-2" d="M1.5,184.69H1194.1a0,0,0,0,1,0,0V997.83a13.71,13.71,0,0,1-13.71,13.71H15.21A13.71,13.71,0,0,1,1.5,997.83V184.69A0,0,0,0,1,1.5,184.69Z"/><path class="cls-3" d="M15.21,112.42H1180.39a13.71,13.71,0,0,1,13.71,13.71v58.56a0,0,0,0,1,0,0H1.5a0,0,0,0,1,0,0V126.13A13.71,13.71,0,0,1,15.21,112.42Z"/><circle class="cls-4" cx="60.2" cy="148.56" r="14.88" transform="translate(-29.84 15.95) rotate(-12.12)"/><path class="cls-4" d="M128.92,148.56A14.89,14.89,0,1,1,114,133.67,14.88,14.88,0,0,1,128.92,148.56Z"/><circle class="cls-4" cx="167.87" cy="148.56" r="14.88" transform="translate(-27.44 38.55) rotate(-12.12)"/><rect class="cls-5" x="186.99" y="339.49" width="869.22" height="492.69"/><rect class="cls-6" x="212.93" y="313.55" width="869.22" height="492.69"/><rect class="cls-7" x="641.77" y="354.32" width="4.17" height="400.02"/><rect class="cls-8" x="723.76" y="405.28" width="274.06" height="9.73"/><rect class="cls-8" x="723.76" y="442.82" width="212.44" height="9.73"/><rect class="cls-8" x="723.76" y="536.26" width="274.06" height="9.73"/><rect class="cls-8" x="723.76" y="573.79" width="212.44" height="9.73"/><rect class="cls-8" x="723.76" y="667.23" width="274.06" height="9.73"/><rect class="cls-8" x="723.76" y="704.76" width="212.44" height="9.73"/><rect class="cls-9" x="212.93" y="313.55" width="433.01" height="492.69"/><g class="cls-10"><path class="cls-4" d="M493.15,1098.52H451.07v-29.47H474l23.43,13.18C505.23,1086.62,502.11,1098.52,493.15,1098.52Z"/><path class="cls-4" d="M375.27,1098.52H333.19v-29.47h22.92l23.43,13.18C387.34,1086.62,384.23,1098.52,375.27,1098.52Z"/><path class="cls-11" d="M413.75,407.94h-8.57l-17.46,22.64a14.65,14.65,0,1,0,0,29.29v43.95H346.27a75.93,75.93,0,0,0-57.8,26.81,42.89,42.89,0,0,1-.15-21.76,43.61,43.61,0,0,1,24.87-29.23A17,17,0,0,0,323.36,467a43.46,43.46,0,0,1,25.05-32.24,16.82,16.82,0,0,0,9.47-11.37A41.3,41.3,0,0,1,398,391.86h14.48a38.72,38.72,0,0,1,38.72,38.72A42.3,42.3,0,0,0,413.75,407.94Z"/><path class="cls-12" d="M307.18,685l-60.72-54.87a27.16,27.16,0,0,1-3.88-36l41.86-58.53c1.26-1.75,2.65-3.35,4-5a75.93,75.93,0,0,1,57.8-26.81h41.45l6,4.64,25.77,20V503.82h36.19a76,76,0,0,1,66.17,38.6l22.78,40.3,54.6-58,22.47,21.13L557.34,633a24.46,24.46,0,0,1-37.79,1.93l-37.42-41.14-13.67,68.79h0L480,696.22l48,140.53a392.4,392.4,0,0,1-46.82,13.66,422.9,422.9,0,0,1-52.91,8.84,319.61,319.61,0,0,1-49.37,1.3,222.48,222.48,0,0,1-52.73-9,163.7,163.7,0,0,1-34.39-14.78L323.35,719.5l5.19-19.22,8.24,5.92,20-19.68-11.11-24h-6.92l-17-85.52L284,613.85l44.49,48.71Z"/><path class="cls-13" d="M474,1069.05H451.07L428.2,859.25a422.9,422.9,0,0,0,52.91-8.84Z"/><path class="cls-13" d="M356.11,1069.05H333.19L326.1,851.53a222.48,222.48,0,0,0,52.73,9Z"/><path class="cls-13" d="M373.07,445.23a14.65,14.65,0,0,1,14.65-14.65l17.46-22.64h8.57a42.3,42.3,0,0,1,37.45,22.64h0v19.85A26.53,26.53,0,0,1,424.67,477h-5.21v51.51l-25.77-20-6-4.64h0V459.87A14.64,14.64,0,0,1,373.07,445.23Z"/><polygon class="cls-13" points="328.54 700.28 307.18 684.97 328.52 662.56 338.72 662.56 345.64 662.56 356.75 686.52 336.79 706.2 328.54 700.28"/><polygon class="cls-13" points="626.06 498.18 626.06 540.33 621.67 545.82 599.2 524.69 609.4 498.18 626.06 498.18"/></g><path class="cls-13" d="M853,1165.71h69.42v-48.62H884.6L846,1138.83C833.07,1146.07,838.21,1165.71,853,1165.71Z"/><path class="cls-13" d="M1147.41,1165.71h69.41v-48.62H1179l-38.64,21.74C1127.49,1146.07,1132.63,1165.71,1147.41,1165.71Z"/><path class="cls-7" d="M1207.7,446.54h-214c-19,41.3-109.08,670.55-109.08,670.55h37.81l158.8-539.94h39L1179,1117.09h37.81l17.55-538.64a292.52,292.52,0,0,0-26.67-131.9Z"/><polygon class="cls-13" points="710.54 360.98 669.51 334.5 631.19 360.98 631.19 401.14 710.54 404.47 710.54 360.98"/><path class="cls-11" d="M1086.6,34.42l40.27,29.45a24.16,24.16,0,1,1,0,48.32v72.49h76.61a107.93,107.93,0,0,1,88.47,46.1l.75,1.08c7.27-16.82,6.13-29.17,6.13-29.17-68.72-16-96.34-104.52-127.59-164.26l0,0A68.11,68.11,0,0,0,1109.9,0H1086a63.86,63.86,0,0,0-63.87,63.87h64.44Z"/><path class="cls-13" d="M1126.87,63.87,1086.6,34.42V63.87h-64.44V96.62a43.76,43.76,0,0,0,43.76,43.76h8.59v44.3h52.36V112.19a24.16,24.16,0,1,0,0-48.32Z"/><path class="cls-12" d="M1369.83,342.22,1292.7,231.86l-.75-1.08a107.93,107.93,0,0,0-88.47-46.1H1018.7a107.94,107.94,0,0,0-102.08,72.87L881.09,361H710.54v43.49l190,27.91a44.09,44.09,0,0,0,41.29-16.67l36.36-47.08,15.48,77.91h214l27.56-138.69,60.66,61.64-68.31,77.05,23.33,36.23,107.91-76.9A45.89,45.89,0,0,0,1369.83,342.22Z"/><polygon class="cls-13" points="1227.61 446.55 1207.7 446.55 1160.97 474.44 1178.08 517.76 1229.99 517.76 1250.94 482.77 1227.61 446.55"/></g></g></svg>