<?xml version="1.0" encoding="UTF-8"?>
<svg width="53px" height="11px" viewBox="0 0 53 11" version="1.1" xmlns="http://www.w3.org/2000/svg" xmlns:xlink="http://www.w3.org/1999/xlink">
    <title>MURAL</title>
    <g id="Page-1" stroke="none" stroke-width="1" fill="none" fill-rule="evenodd">
        <g id="Group-4">
            <polygon id="Path-2" fill="#3D5AFE" points="2.13208008 2.67321777 1.66418457 10.0938721 0 10.0938721 0.559570312 -5.60322459e-16 2.74194336 0 5.43725586 6.73486328 8.14440918 0 10.2949219 0 10.9925537 10.0938721 9.15893555 10.0938721 8.68200684 2.67321777 6.23364258 9.03588867 4.67102051 9.03588867"></polygon>
            <path d="M12.4478149,0 C12.4478149,3.9708718 12.4478149,5.9563077 12.4478149,5.9563077 C12.4478149,5.9563077 12.4766032,6.21918207 12.5341797,6.74493082 C12.5579955,6.93643677 12.5846374,7.09138577 12.6141052,7.20977784 C12.6435731,7.3281699 12.6990032,7.50295885 12.7803955,7.7341447 C12.8555574,7.92462176 12.9160839,8.06494251 12.9619751,8.15510694 C13.0078663,8.24527136 13.066928,8.33991088 13.1391602,8.43902547 C13.2215859,8.54815313 13.2860034,8.6303902 13.3324127,8.68573671 C13.378822,8.74108321 13.451815,8.82271818 13.5513916,8.93064162 L13.8674011,9.21256135 L14.1460571,9.4083994 L14.4064789,9.55694731 L14.7077484,9.69683375 L15.0078735,9.80435442 L15.2448578,9.867709 L15.4689178,9.91628726 L15.8713837,9.977036 L16.2104034,10 L16.5174408,10 L16.7922821,10 L17.0579834,9.977036 L17.347229,9.93631969 L17.7827301,9.83173059 L18.0891876,9.73482577 L18.4214783,9.58746234 L18.8407593,9.34651061 L19.1826782,9.07303026 L19.500885,8.76080278 L19.7698059,8.39235718 L19.9965057,7.99819368 L20.1452484,7.65903421 L20.2774048,7.28046135 L20.3888245,6.78597286 L20.4593048,6.15698729 L20.4593048,5.2680984 L20.4593048,4.41838601 L20.4593048,2.80942546 L20.4593048,0 L18.5513153,0 L18.5513153,4.80098608 L18.5513153,5.9563077 L18.5304108,6.31650639 L18.4620361,6.74493082 C18.436417,6.83985822 18.4156905,6.91224442 18.3998566,6.96208941 C18.3840227,7.01193441 18.3578386,7.08722257 18.3213043,7.18795389 L18.1685028,7.49776801 L18.0444946,7.65903421 L17.8079834,7.93331409 L17.582901,8.10429298 L17.2835083,8.25310739 L16.9886932,8.33676091 C16.8389784,8.36737086 16.721028,8.38590295 16.6348419,8.39235718 C16.5486559,8.3988114 16.4191393,8.3988114 16.2462921,8.39235718 C16.1365391,8.38024507 16.0547266,8.36867177 16.0008545,8.35763727 C15.9469824,8.34660277 15.8855505,8.32883565 15.8165588,8.30433592 L15.5753784,8.22040109 L15.3311462,8.0848676 L15.1141663,7.93331409 L14.9245453,7.7341447 L14.7514191,7.49776801 L14.6021881,7.18795389 L14.4698486,6.78597286 L14.4064789,6.41906708 L14.3698273,5.93165582 L14.3698273,3.02033595 L14.3698273,0 L12.4478149,0 Z" id="Path-4" fill="#3D5AFE"></path>
            <path d="M22.2416992,0.115966797 L22.2416992,10.1159668 L24.0817261,10.1159668 L24.0817261,6.34197676 L25.2476807,6.34197676 L27.7674561,10.1159668 L29.895813,10.1159668 L27.0716553,6.05602639 L27.6436615,5.78523 L27.9581757,5.58932896 L28.3027039,5.31872859 L28.5942535,5.01519658 L28.7964478,4.731508 L28.9215546,4.50801314 L29.0641785,4.18332587 L29.1680908,3.78644232 L29.2240295,3.30450043 L29.2240295,3.02728056 L29.189209,2.63012559 C29.1670819,2.52683791 29.1489036,2.44817793 29.1346741,2.39414567 C29.1204445,2.3401134 29.096946,2.26051855 29.0641785,2.15536112 L28.9215546,1.83884645 L28.7964478,1.62429319 L28.5942535,1.34770662 L28.3027039,1.05269402 L28.1480713,0.923832392 L27.9178467,0.762506562 L27.6085815,0.586705286 L27.2040405,0.410421495 L26.7677917,0.278770329 L26.3046875,0.182237198 L25.9792633,0.138313267 L25.6411591,0.115966797 L25.2476807,0.115966797 L22.2416992,0.115966797 Z" id="Path-5" fill="#3D5AFE"></path>
            <path d="M24.0930481,1.52572632 L24.0930481,4.78848267 L25.3518372,4.78848267 L25.5042267,4.78848267 L25.7201691,4.76376343 L25.8528748,4.74110413 C25.9144009,4.73208594 25.9603654,4.72449723 25.9907684,4.71833801 C26.0211714,4.71217879 26.0641097,4.70175704 26.1195831,4.68707275 L26.4033508,4.58920288 L26.5846405,4.50645447 L26.7402344,4.40415955 L26.8473206,4.31214905 L26.973999,4.188797 L27.0847931,4.04470825 L27.1730652,3.91479492 L27.2324829,3.77313232 L27.2945404,3.58905029 L27.3292542,3.42352295 L27.3583221,3.23040771 L27.3583221,3.04425049 L27.3292542,2.79547119 L27.2945404,2.61984253 L27.2324829,2.48205566 L27.1730652,2.3218689 L27.0531006,2.17010498 L26.9402313,2.04286194 L26.7737274,1.90351868 L26.6069031,1.80575562 L26.4033508,1.69769287 L26.252182,1.6468811 L26.1195831,1.60624695 L25.9675446,1.56913757 L25.8091583,1.54801941 L25.4334106,1.52572632 L24.0930481,1.52572632 Z" id="Path-6" fill="#FFFFFF"></path>
            <polygon id="Path-7" fill="#3D5AFE" points="30.5152588 10 32.4274902 10 33.1901855 7.79335883 37.0031738 7.79335883 37.8033447 10 39.8319092 10 36.1800537 0 34.0750732 0"></polygon>
            <polygon id="Path-8" fill="#FFFFFF" points="33.6623535 6.27990723 36.5235596 6.27990723 35.0929565 1.82226562"></polygon>
            <polyline id="Path-9" fill="#3D5AFE" points="41.0244141 0 41.0244141 10 47.2501221 10 47.2501221 8.44873429 42.9279785 8.44873429 42.9279785 0 40.5942383 0"></polyline>
            <polygon id="Path-10" fill="#3D5AFE" points="48.2416992 1.7009847 48.2416992 3.3803388 50.6864624 1.99941244 50.6864624 10.1159668 52.5703735 10.1159668 52.5703735 0.115966797 50.9847412 0.115966797"></polygon>
        </g>
    </g>
</svg>