<svg xmlns="http://www.w3.org/2000/svg" viewBox="0 0 74.75 20.02"><defs><style>.cls-1{fill:#fff;}</style></defs><title>arrow</title><g id="Layer_2" data-name="Layer 2"><g id="Layer_1-2" data-name="Layer 1"><path class="cls-1" d="M73.39,10C60.72,9.24,48,8.37,35.3,8.34A176.11,176.11,0,0,0,17.39,9.61C12,10.16,5.64,9.94.68,12.17A1.42,1.42,0,0,0,1,14.74c5.48,1,11.79-.9,17.31-1.53a158.15,158.15,0,0,1,17.92-1.45c12.39,0,24.77.51,37.14,1,1.82.07,1.8-2.71,0-2.82Z" transform="translate(0 -0.93)"/><path class="cls-1" d="M71.39,10.43C59.18,10.49,48.51,4.17,37,1l-.29,2.12c10.9-.06,20.59,6,31.34,7l-.74-2.72a58.38,58.38,0,0,1-18.27,6.21c-3.65.59-7.27,1.33-9,4.94-.86,1.79,1.82,3.36,2.67,1.56,1.86-3.94,8.47-3.6,12.17-4.65A66.13,66.13,0,0,0,68.79,10c1.37-.75.61-2.59-.73-2.72C57.32,6.25,47.72.42,36.72,1,35.56,1,35.2,2.8,36.44,3.09c11.69,2.66,22.69,8.51,35,7.9a.28.28,0,0,0,0-.56Z" transform="translate(0 -0.93)"/></g></g></svg>